<svg width="17" height="17" viewBox="0 0 17 17" fill="none" xmlns="http://www.w3.org/2000/svg">
<path d="M14.6556 9.15642C14.4802 9.15642 14.2969 9.10062 14.1215 9.06076C13.7663 8.98249 13.4173 8.87858 13.0771 8.74985C12.7073 8.6153 12.3008 8.62229 11.9358 8.76946C11.5708 8.91664 11.2731 9.1936 11.1 9.54706L10.9247 9.9058C10.1482 9.47386 9.43466 8.93738 8.80409 8.31138C8.17809 7.6808 7.64161 6.96729 7.20967 6.19081L7.5445 5.96759C7.89795 5.79453 8.17491 5.49686 8.32209 5.13187C8.46926 4.76687 8.47625 4.36035 8.3417 3.99051C8.21513 3.64964 8.11126 3.30076 8.03079 2.94617C7.99093 2.77078 7.95904 2.58742 7.93513 2.40407C7.83832 1.84253 7.5442 1.33401 7.10573 0.970077C6.66726 0.606149 6.11326 0.410731 5.5435 0.419015H3.15187C2.8083 0.415789 2.46807 0.486629 2.15434 0.626712C1.8406 0.766796 1.56073 0.972833 1.33378 1.2308C1.10684 1.48876 0.938133 1.7926 0.839162 2.12163C0.740192 2.45065 0.713276 2.79714 0.760248 3.1375C1.18495 6.47731 2.71024 9.58044 5.09519 11.9567C7.48014 14.333 10.5888 15.847 13.9301 16.2596H14.2331C14.821 16.2604 15.3885 16.0447 15.8275 15.6537C16.0797 15.4281 16.2812 15.1516 16.4186 14.8424C16.556 14.5332 16.6263 14.1983 16.6247 13.86V11.4683C16.6149 10.9146 16.4133 10.3814 16.0542 9.95974C15.6951 9.53811 15.2007 9.25418 14.6556 9.15642ZM15.0542 13.9397C15.0541 14.0529 15.0298 14.1647 14.9831 14.2678C14.9363 14.3709 14.8682 14.4629 14.7832 14.5376C14.6943 14.6149 14.5902 14.6726 14.4776 14.707C14.3649 14.7413 14.2463 14.7515 14.1294 14.7369C11.1438 14.3541 8.37059 12.9882 6.24721 10.8547C4.12383 8.72122 2.77114 5.94155 2.4025 2.95414C2.38981 2.83736 2.40093 2.71923 2.43519 2.60687C2.46944 2.49451 2.52612 2.39026 2.6018 2.30043C2.67651 2.21539 2.76847 2.14724 2.87156 2.1005C2.97465 2.05377 3.08652 2.02952 3.19971 2.02938H5.59133C5.77672 2.02525 5.95775 2.08588 6.10326 2.20083C6.24876 2.31578 6.34965 2.47786 6.38854 2.65917C6.42043 2.87708 6.46029 3.09232 6.50812 3.30491C6.60022 3.72516 6.72278 4.13814 6.87484 4.54058L5.75875 5.05877C5.66332 5.10255 5.57748 5.16476 5.50616 5.24181C5.43484 5.31886 5.37944 5.40924 5.34314 5.50775C5.30684 5.60627 5.29036 5.71099 5.29465 5.8159C5.29894 5.9208 5.3239 6.02383 5.36811 6.11906C6.51546 8.57666 8.49098 10.5522 10.9486 11.6995C11.1427 11.7793 11.3604 11.7793 11.5545 11.6995C11.6539 11.664 11.7452 11.609 11.8233 11.5378C11.9013 11.4667 11.9644 11.3807 12.0089 11.285L12.5031 10.1689C12.9153 10.3163 13.3359 10.4387 13.7627 10.5356C13.9753 10.5834 14.1906 10.6233 14.4085 10.6552C14.5898 10.6941 14.7519 10.795 14.8668 10.9405C14.9818 11.086 15.0424 11.267 15.0383 11.4524L15.0542 13.9397Z" fill="#C0C0C0"/>
</svg>
