<svg width="19" height="19" viewBox="0 0 19 19" fill="none" xmlns="http://www.w3.org/2000/svg">
<path d="M9.27087 9.78027C6.61664 9.78027 4.45703 7.62066 4.45703 4.96643C4.45703 2.3122 6.61664 0.152588 9.27087 0.152588C11.9251 0.152588 14.0847 2.3122 14.0847 4.96643C14.0847 7.62066 11.9251 9.78027 9.27087 9.78027ZM9.27087 1.35605C7.27975 1.35605 5.66049 2.9753 5.66049 4.96643C5.66049 6.95756 7.27975 8.57681 9.27087 8.57681C11.262 8.57681 12.8813 6.95756 12.8813 4.96643C12.8813 2.9753 11.262 1.35605 9.27087 1.35605Z" fill="black"/>
<path d="M9.51146 7.4937H9.03008C8.34109 7.4937 7.72432 7.03217 7.52996 6.37207C7.43609 6.05316 7.61781 5.71859 7.93733 5.62472C8.25685 5.53266 8.59081 5.71378 8.68408 6.03209C8.72921 6.18433 8.87182 6.29084 9.03008 6.29084H9.51146C9.71063 6.29084 9.8725 6.12897 9.8725 5.9298C9.8725 5.73063 9.71063 5.56816 9.51146 5.56816H9.03008C8.16719 5.56816 7.46558 4.86594 7.46558 4.00366C7.46558 3.14138 8.16719 2.43916 9.03008 2.43916H9.51146C10.186 2.43916 10.7817 2.8688 10.9953 3.50904C11.1006 3.82435 10.9303 4.16493 10.615 4.27023C10.2967 4.37673 9.95915 4.20464 9.85384 3.88993C9.8051 3.74191 9.66731 3.64262 9.51146 3.64262H9.03008C8.8309 3.64262 8.66904 3.80449 8.66904 4.00366C8.66904 4.20283 8.8309 4.3647 9.03008 4.3647H9.51146C10.3743 4.3647 11.076 5.06692 11.076 5.9292C11.076 6.79148 10.3743 7.4937 9.51146 7.4937Z" fill="black"/>
<path d="M9.27083 3.16124C9.10776 3.16124 8.95733 3.09505 8.8436 2.98674C8.81953 2.95665 8.78944 2.92657 8.77139 2.89046C8.74732 2.86038 8.72927 2.82427 8.71724 2.78817C8.69918 2.75206 8.68715 2.71596 8.68053 2.67986C8.67512 2.63774 8.6691 2.60163 8.6691 2.55951C8.6691 2.40306 8.73469 2.24661 8.8436 2.13228C9.06624 1.90964 9.4694 1.90964 9.69806 2.13228C9.80637 2.24661 9.87256 2.40306 9.87256 2.55951C9.87256 2.60163 9.86654 2.63774 9.85992 2.67986C9.8539 2.71596 9.84247 2.75206 9.82382 2.78817C9.81118 2.82427 9.79373 2.86038 9.76966 2.89046C9.74559 2.92657 9.72152 2.95665 9.69745 2.98674C9.58373 3.09505 9.42728 3.16124 9.27083 3.16124ZM9.27083 7.97508C9.10776 7.97508 8.95733 7.90889 8.8436 7.80058C8.81953 7.7705 8.78944 7.74041 8.77139 7.70431C8.74732 7.67422 8.72927 7.63811 8.71724 7.60201C8.69918 7.56591 8.68715 7.5298 8.68053 7.4937C8.67512 7.45158 8.6691 7.41547 8.6691 7.37335C8.6691 7.2169 8.73469 7.06045 8.8436 6.94613C9.06624 6.72348 9.4694 6.72348 9.69806 6.94613C9.80637 7.06045 9.87256 7.2169 9.87256 7.37335C9.87256 7.41547 9.86654 7.45158 9.85992 7.4937C9.8539 7.5298 9.84247 7.56591 9.82382 7.60201C9.81118 7.63811 9.79373 7.67422 9.76966 7.70431C9.74559 7.74041 9.72152 7.7705 9.69745 7.80058C9.58373 7.90889 9.42728 7.97508 9.27083 7.97508ZM10.4743 18.2045H0.846603C0.513847 18.2045 0.244873 17.9349 0.244873 17.6028V12.1872C0.244873 12.0277 0.308055 11.8743 0.42118 11.7618C0.561985 11.6204 1.84126 10.382 3.25352 10.382C4.42329 10.382 5.93243 11.2659 6.43969 11.5855H9.27083C10.2661 11.5855 11.076 12.3954 11.076 13.3907C11.076 13.4972 11.0664 13.6013 11.0489 13.703L15.7972 11.7245C16.3556 11.4916 16.9892 11.5536 17.4929 11.8887C17.9965 12.2245 18.2968 12.7859 18.2968 13.3907C18.2968 13.6043 18.1837 13.8028 17.9983 13.9106L10.7776 18.1227C10.6855 18.1762 10.5808 18.2045 10.4743 18.2045ZM1.44833 17.001H10.3112L17.0145 13.091C16.9694 13.0122 16.905 12.9436 16.8256 12.89C16.6553 12.7763 16.4483 12.7564 16.2605 12.8353L10.7066 15.1495C10.6325 15.1802 10.5537 15.1958 10.4743 15.1958H5.66045C5.32769 15.1958 5.05872 14.9263 5.05872 14.5941C5.05872 14.262 5.32769 13.9924 5.66045 13.9924H9.27083C9.60298 13.9924 9.87256 13.7222 9.87256 13.3907C9.87256 13.0591 9.60298 12.7889 9.27083 12.7889H6.26218C6.14364 12.7889 6.0269 12.7534 5.92822 12.6884C5.46789 12.3816 4.08812 11.5855 3.25352 11.5855C2.59764 11.5855 1.84126 12.115 1.44833 12.4514V17.001Z" fill="black"/>
</svg>
