<svg width="256" height="247" viewBox="0 0 256 247" fill="none" xmlns="http://www.w3.org/2000/svg">
<path d="M129.459 43.0509C112.64 43.0509 96.1991 48.0383 82.2147 57.3824C68.2304 66.7264 57.3308 80.0075 50.8945 95.5462C44.4582 111.085 42.7742 128.183 46.0554 144.679C49.3366 161.174 57.4357 176.327 69.3284 188.219C81.2212 200.112 96.3734 208.211 112.869 211.492C129.365 214.774 146.463 213.09 162.002 206.653C177.54 200.217 190.821 189.318 200.166 175.333C209.51 161.349 214.497 144.908 214.497 128.089C214.472 105.543 205.504 83.928 189.562 67.9858C173.62 52.0436 152.005 43.0762 129.459 43.0509ZM129.459 207.052C113.842 207.052 98.5749 202.421 85.5893 193.745C72.6038 185.068 62.4829 172.736 56.5063 158.307C50.5297 143.878 48.966 128.001 52.0128 112.684C55.0596 97.3662 62.5802 83.2962 73.6235 72.253C84.6667 61.2097 98.7367 53.6891 114.054 50.6423C129.372 47.5955 145.249 49.1592 159.677 55.1358C174.106 61.1124 186.438 71.2333 195.115 84.2188C203.792 97.2043 208.423 112.471 208.423 128.089C208.399 149.024 200.072 169.095 185.269 183.898C170.465 198.702 150.394 207.029 129.459 207.052Z" fill="#FFC806"/>
<path d="M175.923 89.4789L104.056 160.202L83.0675 138.143C82.5121 137.559 81.7477 137.22 80.9423 137.2C80.1369 137.18 79.3565 137.481 78.7729 138.036C78.1892 138.592 77.8501 139.356 77.83 140.161C77.81 140.967 78.1108 141.747 78.6661 142.331L101.784 166.627C102.062 166.919 102.395 167.153 102.764 167.315C103.133 167.477 103.531 167.564 103.934 167.571H103.984C104.781 167.571 105.546 167.257 106.114 166.699L180.182 93.809C180.468 93.5296 180.695 93.1967 180.852 92.8292C181.008 92.4618 181.091 92.0671 181.094 91.6677C181.098 91.2684 181.023 90.8722 180.873 90.5019C180.724 90.1316 180.503 89.7944 180.223 89.5097C179.943 89.225 179.609 88.9983 179.241 88.8426C178.874 88.6869 178.479 88.6053 178.079 88.6024C177.68 88.5996 177.284 88.6755 176.914 88.8259C176.544 88.9763 176.207 89.1982 175.923 89.4789H175.923Z" fill="#2D4356"/>
<path d="M229.26 218.821H161.746C183.12 210.891 201.025 195.7 212.332 175.905C223.638 156.109 227.626 132.969 223.598 110.531C219.57 88.0928 207.782 67.7848 190.296 53.1583C172.81 38.5318 150.738 30.5178 127.941 30.5178C105.144 30.5178 83.0729 38.5318 65.5867 53.1583C48.1006 67.7848 36.3127 88.0928 32.2844 110.531C28.2562 132.969 32.2441 156.109 43.5506 175.905C54.8571 195.7 72.7627 210.891 94.136 218.821H26.6228C26.1907 218.765 25.7516 218.801 25.3347 218.928C24.9178 219.054 24.5328 219.269 24.2053 219.556C23.8779 219.844 23.6155 220.198 23.4358 220.595C23.2561 220.992 23.1631 221.422 23.1631 221.858C23.1631 222.294 23.2561 222.725 23.4358 223.121C23.6155 223.518 23.8779 223.872 24.2053 224.16C24.5328 224.447 24.9178 224.662 25.3347 224.788C25.7516 224.915 26.1907 224.952 26.6228 224.895H229.26C229.692 224.952 230.131 224.915 230.548 224.788C230.965 224.662 231.35 224.447 231.677 224.16C232.005 223.872 232.267 223.518 232.447 223.121C232.626 222.725 232.719 222.294 232.719 221.858C232.719 221.422 232.626 220.992 232.447 220.595C232.267 220.198 232.005 219.844 231.677 219.556C231.35 219.269 230.965 219.054 230.548 218.928C230.131 218.801 229.692 218.765 229.26 218.821ZM36.8293 127.709C36.8293 109.689 42.1729 92.0733 52.1844 77.09C62.1959 62.1067 76.4257 50.4287 93.0742 43.5327C109.723 36.6366 128.042 34.8323 145.716 38.3479C163.39 41.8634 179.625 50.541 192.367 63.2832C205.109 76.0255 213.787 92.26 217.302 109.934C220.818 127.608 219.014 145.928 212.118 162.576C205.222 179.225 193.544 193.454 178.56 203.466C163.577 213.477 145.961 218.821 127.941 218.821C103.785 218.794 80.6265 209.186 63.5456 192.105C46.4647 175.024 36.8567 151.865 36.8293 127.709ZM134.775 22.5508C135.676 22.5508 136.556 22.2836 137.306 21.783C138.055 21.2824 138.639 20.5709 138.983 19.7385C139.328 18.9061 139.418 17.9901 139.243 17.1064C139.067 16.2227 138.633 15.411 137.996 14.7739C137.359 14.1368 136.547 13.7029 135.663 13.5271C134.78 13.3513 133.864 13.4415 133.031 13.7863C132.199 14.1311 131.487 14.7151 130.987 15.4642C130.486 16.2134 130.219 17.0942 130.219 17.9952C130.22 19.203 130.701 20.3609 131.555 21.2149C132.409 22.069 133.567 22.5494 134.775 22.5508ZM134.775 15.7174C135.225 15.7174 135.666 15.851 136.04 16.1012C136.415 16.3515 136.707 16.7073 136.879 17.1235C137.051 17.5397 137.097 17.9977 137.009 18.4395C136.921 18.8814 136.704 19.2873 136.385 19.6058C136.067 19.9244 135.661 20.1413 135.219 20.2292C134.777 20.3171 134.319 20.272 133.903 20.0996C133.487 19.9272 133.131 19.6352 132.881 19.2606C132.63 18.8861 132.497 18.4457 132.497 17.9952C132.497 17.3912 132.738 16.8122 133.165 16.3852C133.592 15.9581 134.171 15.718 134.775 15.7174ZM240.775 98.857C240.175 98.857 239.587 99.0351 239.088 99.3688C238.589 99.7025 238.199 100.177 237.969 100.732C237.74 101.287 237.679 101.897 237.797 102.487C237.914 103.076 238.203 103.617 238.628 104.042C239.052 104.466 239.594 104.756 240.183 104.873C240.772 104.99 241.383 104.93 241.938 104.7C242.492 104.47 242.967 104.081 243.301 103.581C243.634 103.082 243.812 102.495 243.812 101.894C243.811 101.089 243.491 100.317 242.922 99.7475C242.352 99.1782 241.58 98.8579 240.775 98.857ZM240.775 103.413C240.475 103.413 240.181 103.324 239.932 103.157C239.682 102.99 239.487 102.753 239.372 102.475C239.257 102.198 239.227 101.892 239.286 101.598C239.345 101.303 239.489 101.033 239.702 100.82C239.914 100.608 240.184 100.463 240.479 100.405C240.774 100.346 241.079 100.376 241.356 100.491C241.634 100.606 241.871 100.801 242.038 101.05C242.205 101.3 242.294 101.594 242.294 101.894C242.293 102.297 242.133 102.683 241.849 102.967C241.564 103.252 241.178 103.412 240.775 103.413ZM197.794 1.16478C197.193 1.16478 196.606 1.3429 196.106 1.67662C195.607 2.01033 195.218 2.48466 194.988 3.03961C194.758 3.59456 194.698 4.20521 194.815 4.79434C194.932 5.38348 195.221 5.92463 195.646 6.34937C196.071 6.77411 196.612 7.06336 197.201 7.18055C197.79 7.29774 198.401 7.23759 198.956 7.00772C199.511 6.77786 199.985 6.38859 200.319 5.88914C200.653 5.3897 200.831 4.80252 200.831 4.20184C200.83 3.39665 200.51 2.62469 199.94 2.05533C199.371 1.48597 198.599 1.1657 197.794 1.16478ZM197.794 5.72038C197.493 5.72038 197.2 5.63131 196.95 5.46446C196.7 5.2976 196.506 5.06044 196.391 4.78296C196.276 4.50548 196.246 4.20016 196.304 3.90559C196.363 3.61103 196.508 3.34045 196.72 3.12808C196.932 2.91571 197.203 2.77108 197.497 2.71249C197.792 2.6539 198.097 2.68397 198.375 2.7989C198.652 2.91384 198.889 3.10847 199.056 3.35819C199.223 3.60791 199.312 3.90151 199.312 4.20184C199.312 4.60446 199.152 4.99047 198.867 5.27516C198.582 5.55986 198.196 5.71997 197.794 5.72038ZM245.374 18.881C244.774 18.881 244.186 19.0591 243.687 19.3928C243.188 19.7265 242.798 20.2009 242.568 20.7558C242.339 21.3108 242.278 21.9214 242.396 22.5106C242.513 23.0997 242.802 23.6408 243.227 24.0656C243.652 24.4903 244.193 24.7796 244.782 24.8968C245.371 25.0139 245.982 24.9538 246.537 24.7239C247.092 24.4941 247.566 24.1048 247.9 23.6054C248.233 23.1059 248.411 22.5187 248.411 21.9181C248.41 21.1129 248.09 20.3409 247.521 19.7715C246.951 19.2022 246.18 18.8819 245.374 18.881ZM245.374 23.4366C245.074 23.4366 244.78 23.3475 244.531 23.1807C244.281 23.0138 244.086 22.7766 243.971 22.4992C243.856 22.2217 243.826 21.9164 243.885 21.6218C243.944 21.3272 244.088 21.0567 244.301 20.8443C244.513 20.6319 244.784 20.4873 245.078 20.4287C245.373 20.3701 245.678 20.4002 245.955 20.5151C246.233 20.63 246.47 20.8247 246.637 21.0744C246.804 21.3241 246.893 21.6177 246.893 21.9181C246.892 22.3207 246.732 22.7067 246.448 22.9914C246.163 23.2761 245.777 23.4362 245.374 23.4366ZM46.4032 42.1651C46.4032 41.5645 46.2251 40.9773 45.8914 40.4778C45.5577 39.9784 45.0833 39.5891 44.5284 39.3593C43.9734 39.1294 43.3628 39.0692 42.7736 39.1864C42.1845 39.3036 41.6434 39.5929 41.2186 40.0176C40.7939 40.4423 40.5046 40.9835 40.3874 41.5726C40.2703 42.1618 40.3304 42.7724 40.5603 43.3274C40.7901 43.8823 41.1794 44.3566 41.6788 44.6904C42.1783 45.0241 42.7655 45.2022 43.3662 45.2022C44.1713 45.2013 44.9433 44.881 45.5127 44.3116C46.082 43.7423 46.4023 42.9703 46.4032 42.1651ZM41.8476 42.1651C41.8476 41.8648 41.9367 41.5712 42.1035 41.3215C42.2704 41.0718 42.5076 40.8771 42.785 40.7622C43.0625 40.6473 43.3678 40.6172 43.6624 40.6758C43.957 40.7344 44.2275 40.879 44.4399 41.0914C44.6523 41.3037 44.7969 41.5743 44.8555 41.8689C44.9141 42.1634 44.884 42.4688 44.7691 42.7463C44.6542 43.0237 44.4595 43.2609 44.2098 43.4277C43.9601 43.5946 43.6665 43.6837 43.3662 43.6837C42.9635 43.6833 42.5775 43.5231 42.2928 43.2385C42.0081 42.9538 41.848 42.5678 41.8476 42.1651Z" fill="#2D4356"/>
<path d="M16.918 98.8744L19.1761 95.9041L17.7502 95.0963L16.3 98.4219H16.2529L14.7799 95.1206L13.3297 95.9512L15.5635 98.8516V98.8987L12.0693 98.4462V100.062L15.5863 99.6109V99.6579L13.3297 102.557L14.6827 103.413L16.2286 100.062H16.2757L17.7016 103.389L19.1988 102.534L16.918 99.6822V99.6336L20.5048 100.062V98.4462L16.918 98.9215V98.8744Z" fill="#0BCEB2"/>
<path d="M18.8529 5.20073L17.553 6.8696L18.332 7.36312L19.2219 5.43306H19.2492L20.0707 7.34945L20.9333 6.85593L19.6197 5.2144V5.18706L21.6849 5.43306V4.5022L19.6197 4.77706V4.74973L20.9196 3.03834L20.0981 2.57367L19.2644 4.48854H19.2355L18.3882 2.58734L17.553 3.06567L18.8392 4.73606V4.76339L16.8271 4.5022V5.43306L18.8529 5.1734V5.20073Z" fill="#0BCEB2"/>
<path d="M99.5523 5.28576V3.70041L96.0339 4.1666V4.11952L98.2479 1.20698L96.8493 0.414307L95.428 3.67763H95.3809L93.9368 0.437085L92.5139 1.25405L94.7052 4.09675V4.14382L91.2778 3.70041V5.28576L94.7279 4.84234V4.88942L92.5139 7.73211L93.8426 8.57186L95.3581 5.28576H95.4037L96.8023 8.54756L98.2707 7.70933L96.0339 4.9122V4.86512L99.5523 5.28576Z" fill="#0BCEB2"/>
<path d="M211.244 50.1508L213.154 47.6376L211.947 46.9543L210.722 49.7681H210.681L209.436 46.974L208.207 47.6771L210.098 50.131V50.1705L207.143 49.7878V51.1545L210.117 50.7734V50.8144L208.207 53.2653L209.354 53.9896L210.661 51.1545H210.701L211.906 53.9699L213.174 53.2455L211.244 50.8341V50.7931L214.278 51.1545V49.7878L211.244 50.1902V50.1508Z" fill="#0BCEB2"/>
<path d="M3.42134 224.896C5.09866 224.896 6.4584 223.536 6.4584 221.859C6.4584 220.181 5.09866 218.822 3.42134 218.822C1.74402 218.822 0.384277 220.181 0.384277 221.859C0.384277 223.536 1.74402 224.896 3.42134 224.896Z" fill="#2D4356"/>
<path d="M17.0878 218.821H12.5322C11.7267 218.821 10.9542 219.141 10.3847 219.711C9.81509 220.28 9.49512 221.053 9.49512 221.858C9.49512 222.664 9.81509 223.436 10.3847 224.006C10.9542 224.575 11.7267 224.895 12.5322 224.895H17.0878C17.8933 224.895 18.6657 224.575 19.2353 224.006C19.8049 223.436 20.1248 222.664 20.1248 221.858C20.1248 221.053 19.8049 220.28 19.2353 219.711C18.6657 219.141 17.8933 218.821 17.0878 218.821ZM243.349 218.821H238.793C237.988 218.821 237.215 219.141 236.646 219.711C236.076 220.28 235.756 221.053 235.756 221.858C235.756 222.664 236.076 223.436 236.646 224.006C237.215 224.575 237.988 224.895 238.793 224.895H243.349C244.154 224.895 244.927 224.575 245.497 224.006C246.066 223.436 246.386 222.664 246.386 221.858C246.386 221.053 246.066 220.28 245.497 219.711C244.927 219.141 244.154 218.821 243.349 218.821Z" fill="#2D4356"/>
<path d="M252.46 224.896C254.138 224.896 255.497 223.536 255.497 221.859C255.497 220.181 254.138 218.822 252.46 218.822C250.783 218.822 249.423 220.181 249.423 221.859C249.423 223.536 250.783 224.896 252.46 224.896Z" fill="#2D4356"/>
<path d="M179.805 230.969H167.189C166.426 231.03 165.713 231.377 165.194 231.94C164.674 232.503 164.386 233.24 164.386 234.006C164.386 234.772 164.674 235.51 165.194 236.073C165.713 236.636 166.426 236.982 167.189 237.043H179.805C180.568 236.982 181.281 236.636 181.8 236.073C182.32 235.51 182.608 234.772 182.608 234.006C182.608 233.24 182.32 232.503 181.8 231.94C181.281 231.377 180.568 231.03 179.805 230.969ZM88.6929 230.969H76.0774C75.3139 231.03 74.6014 231.377 74.0819 231.94C73.5624 232.503 73.2739 233.24 73.2739 234.006C73.2739 234.772 73.5624 235.51 74.0819 236.073C74.6014 236.636 75.3139 236.982 76.0774 237.043H88.6929C89.4564 236.982 90.1689 236.636 90.6884 236.073C91.2079 235.51 91.4964 234.772 91.4964 234.006C91.4964 233.24 91.2079 232.503 90.6884 231.94C90.1689 231.377 89.4564 231.03 88.6929 230.969ZM158.312 230.969H97.5705C96.765 230.969 95.9925 231.289 95.4229 231.859C94.8534 232.428 94.5334 233.201 94.5334 234.006C94.5334 234.812 94.8534 235.584 95.4229 236.154C95.9925 236.723 96.765 237.043 97.5705 237.043H121.776V240.08H109.719C108.913 240.08 108.141 240.4 107.571 240.97C107.002 241.54 106.682 242.312 106.682 243.117C106.682 243.923 107.002 244.695 107.571 245.265C108.141 245.835 108.913 246.155 109.719 246.155H147.682C148.487 246.155 149.26 245.835 149.83 245.265C150.399 244.695 150.719 243.923 150.719 243.117C150.719 242.312 150.399 241.54 149.83 240.97C149.26 240.4 148.487 240.08 147.682 240.08H134.106V237.043H158.312C159.117 237.043 159.89 236.723 160.459 236.154C161.029 235.584 161.349 234.812 161.349 234.006C161.349 233.201 161.029 232.428 160.459 231.859C159.89 231.289 159.117 230.969 158.312 230.969Z" fill="#FFC806"/>
</svg>
