<svg width="7" height="9" viewBox="0 0 7 9" fill="none" xmlns="http://www.w3.org/2000/svg">
<path d="M6.31938 3.48341L6.17909 7.61476C6.16714 7.96859 6.01395 8.30395 5.75203 8.54969C5.49011 8.79542 5.14008 8.93217 4.77623 8.93091H2.1108C1.74718 8.93218 1.39736 8.79562 1.13547 8.55017C0.873591 8.30473 0.720242 7.96971 0.707935 7.61613L0.567649 3.48341C0.56458 3.39291 0.598586 3.30493 0.662188 3.23882C0.725789 3.17272 0.813776 3.1339 0.906791 3.13091C0.999807 3.12793 1.09023 3.16101 1.15817 3.2229C1.22612 3.28478 1.26601 3.37039 1.26908 3.46089L1.40937 7.59326C1.41635 7.76967 1.49332 7.93659 1.62412 8.05895C1.75491 8.18131 1.92935 8.24959 2.1108 8.24946H4.77623C4.95791 8.24958 5.13255 8.1811 5.26338 8.05845C5.39421 7.93581 5.47103 7.76855 5.47766 7.5919L5.61795 3.46089C5.62102 3.37039 5.66091 3.28478 5.72885 3.2229C5.7968 3.16101 5.88722 3.12793 5.98024 3.13091C6.07325 3.1339 6.16124 3.17272 6.22484 3.23882C6.28844 3.30493 6.32245 3.39291 6.31938 3.48341ZM6.78338 2.10857C6.78338 2.19907 6.74643 2.28587 6.68065 2.34986C6.61488 2.41385 6.52568 2.44981 6.43266 2.44981H0.454719C0.361704 2.44981 0.272498 2.41385 0.206726 2.34986C0.140954 2.28587 0.104004 2.19907 0.104004 2.10857C0.104004 2.01807 0.140954 1.93127 0.206726 1.86728C0.272498 1.80328 0.361704 1.76733 0.454719 1.76733H1.54194C1.65306 1.76762 1.76032 1.72768 1.84284 1.65527C1.92537 1.58286 1.97725 1.48317 1.9884 1.37559C2.01428 1.12324 2.13579 0.889308 2.32926 0.719364C2.52272 0.54942 2.77429 0.455643 3.03493 0.456302H3.8521C4.11274 0.455643 4.36431 0.54942 4.55777 0.719364C4.75124 0.889308 4.87275 1.12324 4.89863 1.37559C4.90978 1.48317 4.96166 1.58286 5.04419 1.65527C5.12671 1.72768 5.23397 1.76762 5.34509 1.76733H6.43231C6.52532 1.76733 6.61453 1.80328 6.6803 1.86728C6.74607 1.93127 6.78302 2.01807 6.78302 2.10857H6.78338ZM2.59724 1.76733H4.29049C4.24441 1.66487 4.21426 1.55631 4.20106 1.44521C4.19237 1.36109 4.1519 1.28311 4.0875 1.22637C4.02309 1.16964 3.93933 1.13818 3.85245 1.13809H3.03528C2.9484 1.13818 2.86464 1.16964 2.80023 1.22637C2.73583 1.28311 2.69536 1.36109 2.68667 1.44521C2.67335 1.55632 2.6431 1.66489 2.59689 1.76733H2.59724ZM2.95041 6.93741V4.03178C2.95041 3.94128 2.91346 3.85448 2.84769 3.79049C2.78191 3.72649 2.69271 3.69054 2.59969 3.69054C2.50668 3.69054 2.41747 3.72649 2.3517 3.79049C2.28593 3.85448 2.24898 3.94128 2.24898 4.03178V6.93877C2.24898 7.02927 2.28593 7.11607 2.3517 7.18006C2.41747 7.24406 2.50668 7.28001 2.59969 7.28001C2.69271 7.28001 2.78191 7.24406 2.84769 7.18006C2.91346 7.11607 2.95041 7.02927 2.95041 6.93877V6.93741ZM4.63875 6.93741V4.03178C4.63875 3.94128 4.6018 3.85448 4.53603 3.79049C4.47026 3.72649 4.38105 3.69054 4.28804 3.69054C4.19502 3.69054 4.10582 3.72649 4.04004 3.79049C3.97427 3.85448 3.93732 3.94128 3.93732 4.03178V6.93877C3.93732 7.02927 3.97427 7.11607 4.04004 7.18006C4.10582 7.24406 4.19502 7.28001 4.28804 7.28001C4.38105 7.28001 4.47026 7.24406 4.53603 7.18006C4.6018 7.11607 4.63875 7.02927 4.63875 6.93877V6.93741Z" fill="#C0C0C0"/>
</svg>
