<svg width="10" height="10" viewBox="0 0 10 10" fill="none" xmlns="http://www.w3.org/2000/svg">
<path d="M1.81564 9.62909H7.78682C8.15691 9.62803 8.51147 9.48019 8.77268 9.21801C9.03389 8.95583 9.18042 8.60073 9.1801 8.23064V5.23032C9.1801 5.12474 9.13816 5.02349 9.0635 4.94883C8.98885 4.87418 8.8876 4.83224 8.78202 4.83224C8.67644 4.83224 8.57519 4.87418 8.50053 4.94883C8.42588 5.02349 8.38394 5.12474 8.38394 5.23032V8.23064C8.38447 8.38964 8.32189 8.54236 8.20995 8.65528C8.098 8.7682 7.94583 8.83209 7.78682 8.83293H1.81564C1.65664 8.83209 1.50446 8.7682 1.39252 8.65528C1.28057 8.54236 1.21799 8.38964 1.21852 8.23064V2.2698C1.21799 2.1108 1.28057 1.95808 1.39252 1.84516C1.50446 1.73224 1.65664 1.66835 1.81564 1.66751H4.80123C4.90681 1.66751 5.00806 1.62557 5.08271 1.55092C5.15737 1.47626 5.19931 1.37501 5.19931 1.26943C5.19931 1.16385 5.15737 1.0626 5.08271 0.987948C5.00806 0.913293 4.90681 0.871353 4.80123 0.871353H1.81564C1.44555 0.872407 1.09099 1.02025 0.82978 1.28243C0.56857 1.54461 0.422046 1.89971 0.422364 2.2698V8.23064C0.422046 8.60073 0.56857 8.95583 0.82978 9.21801C1.09099 9.48019 1.44555 9.62803 1.81564 9.62909Z" fill="black"/>
<path d="M4.186 4.27253L3.87192 5.71119C3.8577 5.77644 3.86013 5.84423 3.87898 5.9083C3.89783 5.97237 3.9325 6.03066 3.9798 6.07782C4.02774 6.12379 4.08606 6.15752 4.14981 6.17616C4.21356 6.19481 4.28087 6.1978 4.34603 6.1849L5.7815 5.87002C5.85604 5.85365 5.9243 5.81621 5.97815 5.76214L9.60624 2.13405C9.71716 2.02315 9.80514 1.89149 9.86517 1.74659C9.9252 1.60168 9.9561 1.44637 9.9561 1.28953C9.9561 1.13268 9.9252 0.977372 9.86517 0.832467C9.80514 0.687563 9.71716 0.555902 9.60624 0.445004C9.37885 0.227707 9.07644 0.106445 8.76192 0.106445C8.44739 0.106445 8.14498 0.227707 7.91759 0.445004L4.29507 4.07668C4.2407 4.13016 4.20285 4.19815 4.186 4.27253ZM8.48047 1.00829C8.55621 0.935732 8.65704 0.895229 8.76192 0.895229C8.8668 0.895229 8.96762 0.935732 9.04336 1.00829C9.117 1.08338 9.15825 1.18435 9.15825 1.28953C9.15825 1.3947 9.117 1.49568 9.04336 1.57077L8.76192 1.85221L8.19903 1.28933L8.48047 1.00829ZM4.93757 4.55676L7.63416 1.85341L8.19147 2.4135L5.49369 5.11765L4.77914 5.2745L4.93757 4.55676Z" fill="black"/>
</svg>
