<svg width="15" height="14" viewBox="0 0 15 14" fill="none" xmlns="http://www.w3.org/2000/svg">
<path d="M13.5316 1.48684C12.7583 0.713272 11.733 0.24295 10.6422 0.161407C9.55139 0.0798651 8.46756 0.392519 7.58779 1.04251C6.66099 0.353167 5.50743 0.0405857 4.3594 0.167713C3.21137 0.29484 2.15415 0.852231 1.40063 1.72764C0.64711 2.60305 0.253269 3.73146 0.298415 4.88562C0.343561 6.03979 0.824341 7.13398 1.64394 7.94786L7.07061 13.3745C7.13833 13.4428 7.21889 13.497 7.30766 13.534C7.39642 13.571 7.49163 13.59 7.58779 13.59C7.68395 13.59 7.77915 13.571 7.86792 13.534C7.95668 13.497 8.03724 13.4428 8.10496 13.3745L13.5316 7.94786C13.956 7.52372 14.2927 7.02011 14.5224 6.46581C14.7521 5.9115 14.8704 5.31737 14.8704 4.71735C14.8704 4.11734 14.7521 3.5232 14.5224 2.96889C14.2927 2.41459 13.956 1.91098 13.5316 1.48684ZM12.5046 6.9208L7.58779 11.8303L2.671 6.9208C2.23772 6.48572 1.94257 5.93238 1.82257 5.33019C1.70256 4.72801 1.76306 4.1038 1.99645 3.53586C2.22985 2.96793 2.62576 2.48156 3.13452 2.13777C3.64328 1.79398 4.24223 1.60808 4.85624 1.60339C5.67651 1.6054 6.46246 1.93287 7.04148 2.5139C7.10919 2.58218 7.18976 2.63637 7.27852 2.67335C7.36728 2.71033 7.46249 2.72937 7.55865 2.72937C7.65481 2.72937 7.75002 2.71033 7.83878 2.67335C7.92754 2.63637 8.00811 2.58218 8.07582 2.5139C8.6719 1.99737 9.44196 1.72659 10.2301 1.75637C11.0183 1.78615 11.7657 2.11426 12.3211 2.67429C12.8766 3.23432 13.1984 3.98445 13.2217 4.77285C13.2449 5.56125 12.9678 6.32903 12.4463 6.9208H12.5046Z" fill="white"/>
</svg>
