<svg width="13" height="15" viewBox="0 0 13 15" fill="none" xmlns="http://www.w3.org/2000/svg">
<path fill-rule="evenodd" clip-rule="evenodd" d="M10.8333 3.23329H10.1992C9.97615 2.55359 9.37419 2.06662 8.66667 2.06662C7.95914 2.06662 7.35719 2.55359 7.13413 3.23329H2.16667C1.86751 3.23329 1.625 3.49446 1.625 3.81662C1.625 4.13878 1.86751 4.39995 2.16667 4.39995H7.13413C7.35719 5.07965 7.95914 5.56662 8.66667 5.56662C9.37419 5.56662 9.97615 5.07965 10.1992 4.39995H10.8333C11.1325 4.39995 11.375 4.13878 11.375 3.81662C11.375 3.49446 11.1325 3.23329 10.8333 3.23329ZM8.66667 4.39995C8.96583 4.39995 9.20833 4.13878 9.20833 3.81662C9.20833 3.49446 8.96583 3.23329 8.66667 3.23329C8.3675 3.23329 8.125 3.49446 8.125 3.81662C8.125 4.13878 8.3675 4.39995 8.66667 4.39995ZM1.625 7.31662C1.625 6.99444 1.86751 6.73329 2.16667 6.73329H2.8008C3.02388 6.05359 3.6258 5.56662 4.33333 5.56662C5.04087 5.56662 5.64281 6.05359 5.86587 6.73329H10.8333C11.1325 6.73329 11.375 6.99444 11.375 7.31662C11.375 7.63879 11.1325 7.89995 10.8333 7.89995H5.86587C5.64281 8.57965 5.04087 9.06662 4.33333 9.06662C3.6258 9.06662 3.02388 8.57965 2.8008 7.89995H2.16667C1.86751 7.89995 1.625 7.63879 1.625 7.31662ZM4.33333 7.89995C4.63249 7.89995 4.875 7.63879 4.875 7.31662C4.875 6.99444 4.63249 6.73329 4.33333 6.73329C4.03418 6.73329 3.79167 6.99444 3.79167 7.31662C3.79167 7.63879 4.03418 7.89995 4.33333 7.89995ZM2.16667 10.2333C1.86751 10.2333 1.625 10.4944 1.625 10.8166C1.625 11.1388 1.86751 11.4 2.16667 11.4H7.13413C7.35719 12.0797 7.95914 12.5666 8.66667 12.5666C9.37419 12.5666 9.97615 12.0797 10.1992 11.4H10.8333C11.1325 11.4 11.375 11.1388 11.375 10.8166C11.375 10.4944 11.1325 10.2333 10.8333 10.2333H10.1992C9.97615 9.55359 9.37419 9.06662 8.66667 9.06662C7.95914 9.06662 7.35719 9.55359 7.13413 10.2333H2.16667ZM9.20833 10.8166C9.20833 11.1388 8.96583 11.4 8.66667 11.4C8.3675 11.4 8.125 11.1388 8.125 10.8166C8.125 10.4944 8.3675 10.2333 8.66667 10.2333C8.96583 10.2333 9.20833 10.4944 9.20833 10.8166Z" fill="black"/>
</svg>
