<svg width="20" height="21" viewBox="0 0 20 21" fill="none" xmlns="http://www.w3.org/2000/svg">
<path d="M19.1212 10.2865C19.1212 9.45911 19.0561 8.85533 18.9153 8.2292H9.75574V11.9636H15.1322C15.0238 12.8917 14.4385 14.2893 13.1377 15.2285L13.1195 15.3535L16.0155 17.6677L16.2162 17.6883C18.0589 15.9329 19.1212 13.3501 19.1212 10.2865Z" fill="#4285F4"/>
<path d="M9.75566 20.1258C12.3897 20.1258 14.6009 19.2313 16.2161 17.6884L13.1376 15.2285C12.3138 15.8211 11.2081 16.2348 9.75566 16.2348C7.17583 16.2348 4.98623 14.4794 4.2057 12.0531L4.09129 12.0632L1.07991 14.4671L1.04053 14.58C2.64478 17.8672 5.94006 20.1258 9.75566 20.1258Z" fill="#34A853"/>
<path d="M4.20576 12.0531C3.99981 11.427 3.88062 10.7561 3.88062 10.0629C3.88062 9.36964 3.99981 8.6988 4.19492 8.07267L4.18947 7.93932L1.14035 5.49678L1.04059 5.54573C0.379393 6.90983 0 8.44166 0 10.0629C0 11.6841 0.379393 13.2159 1.04059 14.58L4.20576 12.0531" fill="#FBBC05"/>
<path d="M9.75566 3.89097C11.5875 3.89097 12.8232 4.70718 13.5278 5.38927L16.2811 2.61636C14.5902 0.995115 12.3897 0 9.75566 0C5.94006 0 2.64478 2.25855 1.04053 5.54574L4.19486 8.07269C4.98623 5.64641 7.17583 3.89097 9.75566 3.89097" fill="#EB4335"/>
</svg>
