<svg width="21" height="22" viewBox="0 0 21 22" fill="none" xmlns="http://www.w3.org/2000/svg">
<path d="M8.51229 19.6178H4.2141C2.82136 19.6127 1.69214 18.4877 1.68191 17.095V8.54532C1.68464 8.07909 1.89327 7.6379 2.25188 7.33996L3.00874 6.77933C3.28505 6.48493 3.31314 6.03572 3.07567 5.70919C2.8382 5.38267 2.40218 5.27099 2.03697 5.44315L1.26143 6.02247C0.479122 6.62779 0.0148743 7.55628 7.62939e-06 8.54532V17.1043C0.00514631 19.4296 1.88885 21.3133 4.2141 21.3184H8.51229C8.97673 21.3184 9.35323 20.9419 9.35323 20.4775C9.35323 20.013 8.97673 19.6365 8.51229 19.6365V19.6178Z" fill="white"/>
<path d="M20.1921 8.52669C20.1823 7.54491 19.7332 6.61918 18.9681 6.00384L12.5115 0.855359C11.0926 -0.28512 9.07148 -0.28512 7.65265 0.855359L5.60634 2.34104C5.22188 2.61712 5.13403 3.1526 5.41012 3.53705C5.6862 3.92151 6.22168 4.00936 6.60613 3.73327L8.68048 2.18219C9.49465 1.51189 10.6695 1.51189 11.4836 2.18219L17.9403 7.33067C18.3119 7.62524 18.5314 8.07122 18.5383 8.54537V17.1044C18.5383 18.4977 17.4088 19.6272 16.0154 19.6272H14.0999C13.9038 19.6272 13.7449 19.4683 13.7449 19.2722V15.4131C13.7449 14.1834 12.7507 13.1851 11.521 13.1799H8.71785C8.12557 13.1799 7.55755 13.4152 7.13875 13.834C6.71995 14.2528 6.48466 14.8209 6.48466 15.4131V16.8895C6.48466 17.3539 6.86117 17.7304 7.32561 17.7304C7.79006 17.7304 8.16656 17.3539 8.16656 16.8895V15.4131C8.16406 15.2678 8.22005 15.1275 8.32195 15.0239C8.42386 14.9202 8.56314 14.8618 8.70851 14.8618H11.5117C11.811 14.8618 12.0536 15.1045 12.0536 15.4038V19.2722C12.0588 20.3986 12.9734 21.3091 14.0999 21.3091H15.9687C18.2961 21.3091 20.1828 19.4224 20.1828 17.095L20.1921 8.52669Z" fill="white"/>
</svg>
