<svg width="100" height="84" viewBox="0 0 100 84" fill="none" xmlns="http://www.w3.org/2000/svg">
<path d="M34.5928 21.9311V34.5363C34.5928 34.6406 34.6059 34.7581 34.632 34.8886H36.5893V39.9384H35.2974L33.6533 38.1377H33.5359C32.5442 39.3382 31.2784 39.9384 29.7387 39.9384H8.20816C6.40743 39.9384 4.82852 39.3643 3.47145 38.216C1.64462 36.7024 0.731201 34.745 0.731201 32.3441V27.2159L3.78462 24.7497H6.75974V32.3441C6.75974 33.1531 7.04682 33.8055 7.62096 34.3014C8.06462 34.6928 8.57352 34.8886 9.14767 34.8886H27.7813C28.0423 34.8886 28.2511 34.7972 28.4077 34.6145C28.5121 34.458 28.5643 34.2883 28.5643 34.1056V21.9311H34.5928ZM17.6816 41.7392C18.5428 41.7392 19.2605 42.0393 19.8346 42.6395C20.4349 43.2398 20.735 43.9705 20.735 44.8317C20.735 45.6669 20.4349 46.3846 19.8346 46.9848C19.2605 47.585 18.5428 47.8852 17.6816 47.8852C16.8465 47.8852 16.1288 47.585 15.5285 46.9848C14.9283 46.3846 14.6282 45.6669 14.6282 44.8317C14.6282 43.9705 14.9283 43.2398 15.5285 42.6395C16.1288 42.0393 16.8465 41.7392 17.6816 41.7392Z" fill="#FFC806"/>
<path d="M49.3684 11.9097V34.5363C49.3684 34.6406 49.3815 34.7581 49.4076 34.8886H51.3257V39.9384H50.0731L48.3898 38.1377H48.3115C47.3198 39.3382 46.041 39.9384 44.4751 39.9384H36.2935V34.8886H42.7527C42.9093 34.8886 43.0267 34.8494 43.105 34.7711C43.2616 34.6667 43.3399 34.5232 43.3399 34.3405V11.9097H49.3684Z" fill="#FFC806"/>
<path d="M64.1248 11.9097L64.0856 26.7461C67.4 23.1969 71.3277 21.4222 75.8687 21.4222C79.1309 21.4222 81.832 22.3878 83.972 24.319C85.9815 26.1198 86.9863 28.4033 86.9863 31.1697V35.0843C86.9863 36.6241 86.386 37.8898 85.1855 38.8815C84.2721 39.5861 83.2543 39.9384 82.1321 39.9384H51.0499V34.8886H58.0962V11.9097H64.1248ZM80.9577 31.8352C80.9577 30.7391 80.6445 29.7343 80.0182 28.8209C78.8699 27.3333 77.2388 26.5895 75.1249 26.5895C73.272 26.5895 71.4582 27.2028 69.6836 28.4294C67.4653 29.9692 65.5993 32.1222 64.0856 34.8886H80.3705C80.762 34.8886 80.9577 34.7059 80.9577 34.3405V31.8352Z" fill="#FFC806"/>
<path d="M92.4178 6.42916C92.0785 5.67233 91.9089 5.00684 91.9089 4.43269C91.9089 3.2583 92.2482 2.30574 92.9267 1.57501C93.6313 0.844278 94.5448 0.478912 95.667 0.478912C96.3977 0.478912 97.1676 0.6094 97.9766 0.870375V3.3366C97.3503 3.15391 96.8674 3.06257 96.5282 3.06257C95.5365 3.06257 95.0406 3.62367 95.0406 4.74586C95.0406 5.21562 95.132 5.59404 95.3146 5.88111C95.6017 6.24647 96.0062 6.42916 96.5282 6.42916H99.2684V7.6427L98.2115 8.93453H91.0085V6.42916H92.4178ZM97.8592 11.9097V38.4509L94.8057 40.9171H91.8306V11.9097H97.8592Z" fill="#FFC806"/>
<path d="M15.6304 57.3436C19.5443 57.3436 22.6614 58.7263 24.9816 61.4919C26.9738 63.9058 27.9698 66.9292 27.9698 70.5619C27.9698 74.757 26.6808 78.085 24.1028 80.5459C21.8528 82.702 19.0287 83.7801 15.6304 83.7801C11.6462 83.7801 8.48223 82.3974 6.13856 79.6318C4.12301 77.2413 3.11523 74.218 3.11523 70.5619C3.11523 66.3667 4.35738 63.0856 6.84166 60.7185C9.2322 58.4685 12.1618 57.3436 15.6304 57.3436ZM15.5953 62.7574C13.6969 62.7574 12.2204 63.5543 11.1657 65.148C10.2517 66.5073 9.79468 68.3002 9.79468 70.5267C9.79468 73.1282 10.3806 75.132 11.5524 76.5382C12.5836 77.7569 13.943 78.3663 15.6304 78.3663C17.4116 78.3663 18.8061 77.6749 19.8139 76.2921C20.8216 74.8859 21.3255 72.929 21.3255 70.4212C21.3255 67.8666 20.7396 65.9097 19.5678 64.5504C18.56 63.3551 17.2358 62.7574 15.5953 62.7574Z" fill="white"/>
<path d="M42.29 64.9019V68.8393H37.9659V76.3624C37.9659 78.0499 38.7276 78.8936 40.251 78.8936C41.1416 78.8936 41.8447 78.7178 42.3603 78.3663L43.4149 82.6552C42.2665 83.1473 40.5908 83.3934 38.3878 83.3934C35.6691 83.3934 33.8528 82.8075 32.9388 81.6357C32.5403 81.1201 32.2825 80.5576 32.1653 79.9482C32.0482 79.3389 31.9896 78.3311 31.9896 76.9249V68.8393H28.9311V64.9019H31.9896V61.0349L37.9659 57.9061V64.9019H42.29Z" fill="white"/>
<path d="M50.4803 57.9764V83.1473H44.5039V57.9764H50.4803Z" fill="white"/>
<path d="M63.2102 83.6395C60.14 83.6395 57.7026 82.6317 55.898 80.6162C54.3277 78.8584 53.5426 76.6554 53.5426 74.007C53.5426 70.9603 54.5504 68.5346 56.5659 66.73C58.3237 65.1831 60.5267 64.4097 63.1751 64.4097C66.2687 64.4097 68.7178 65.4058 70.5225 67.3979C72.0693 69.1088 72.8427 71.3001 72.8427 73.9719C72.8427 77.0421 71.8349 79.4795 69.8194 81.2841C68.0616 82.8544 65.8586 83.6395 63.2102 83.6395ZM63.1399 68.769C62.0149 68.769 61.1478 69.226 60.5384 70.14C59.9291 71.054 59.6244 72.343 59.6244 74.007C59.6244 77.5225 60.8197 79.2803 63.2102 79.2803C65.6008 79.2803 66.796 77.5108 66.796 73.9719C66.796 70.5033 65.5773 68.769 63.1399 68.769Z" fill="white"/>
<path d="M81.9275 57.9764V67.0112C83.3571 65.23 85.1383 64.3394 87.2711 64.3394C89.7788 64.3394 91.7475 65.3238 93.1771 67.2924C94.4193 68.9799 95.0403 71.1478 95.0403 73.7961C95.0403 76.9835 94.1966 79.4795 92.5092 81.2841C91.0326 82.8544 89.146 83.6395 86.8492 83.6395C84.7399 83.6395 83.029 82.7606 81.7166 81.0029V83.1473H75.9512V57.9764H81.9275ZM85.3727 69.0502C84.2712 69.0502 83.3923 69.4838 82.7361 70.3509C82.0798 71.2181 81.7517 72.3782 81.7517 73.8313C81.7517 75.3547 82.0681 76.5616 82.7009 77.4522C83.3571 78.3194 84.2595 78.753 85.4078 78.753C86.5094 78.753 87.3765 78.3194 88.0093 77.4522C88.6655 76.5616 88.9937 75.3547 88.9937 73.8313C88.9937 72.3782 88.6655 71.2181 88.0093 70.3509C87.3531 69.4838 86.4742 69.0502 85.3727 69.0502Z" fill="white"/>
</svg>
