<svg width="13" height="15" viewBox="0 0 13 15" fill="none" xmlns="http://www.w3.org/2000/svg">
<path d="M0.755371 7.55241C0.755371 7.74559 0.832114 7.93087 0.968718 8.06747C1.10532 8.20408 1.2906 8.28082 1.48378 8.28082H7.01244L5.33709 9.94888C5.26881 10.0166 5.21462 10.0972 5.17764 10.1859C5.14066 10.2747 5.12162 10.3699 5.12162 10.4661C5.12162 10.5622 5.14066 10.6574 5.17764 10.7462C5.21462 10.835 5.26881 10.9155 5.33709 10.9832C5.4048 11.0515 5.48537 11.1057 5.57413 11.1427C5.66289 11.1797 5.7581 11.1987 5.85426 11.1987C5.95042 11.1987 6.04563 11.1797 6.13439 11.1427C6.22315 11.1057 6.30372 11.0515 6.37143 10.9832L9.28508 8.06958C9.3514 8.00031 9.40338 7.91862 9.43805 7.8292C9.5109 7.65186 9.5109 7.45295 9.43805 7.27561C9.40338 7.1862 9.3514 7.10451 9.28508 7.03523L6.37143 4.12158C6.30352 4.05367 6.22289 3.99979 6.13415 3.96304C6.04542 3.92628 5.95031 3.90736 5.85426 3.90736C5.75821 3.90736 5.6631 3.92628 5.57437 3.96304C5.48563 3.99979 5.405 4.05367 5.33709 4.12158C5.26917 4.1895 5.2153 4.27013 5.17854 4.35886C5.14178 4.4476 5.12287 4.54271 5.12287 4.63876C5.12287 4.7348 5.14178 4.82991 5.17854 4.91865C5.2153 5.00739 5.26917 5.08801 5.33709 5.15593L7.01244 6.82399H1.48378C1.2906 6.82399 1.10532 6.90074 0.968718 7.03734C0.832114 7.17395 0.755371 7.35922 0.755371 7.55241ZM10.2247 0.26828H2.94061C2.36105 0.26828 1.80522 0.49851 1.39541 0.908321C0.985601 1.31813 0.755371 1.87396 0.755371 2.45352V4.63876C0.755371 4.83194 0.832114 5.01722 0.968718 5.15382C1.10532 5.29043 1.2906 5.36717 1.48378 5.36717C1.67697 5.36717 1.86225 5.29043 1.99885 5.15382C2.13545 5.01722 2.2122 4.83194 2.2122 4.63876V2.45352C2.2122 2.26033 2.28894 2.07506 2.42554 1.93845C2.56215 1.80185 2.74742 1.72511 2.94061 1.72511H10.2247C10.4179 1.72511 10.6032 1.80185 10.7398 1.93845C10.8764 2.07506 10.9531 2.26033 10.9531 2.45352V12.6513C10.9531 12.8445 10.8764 13.0298 10.7398 13.1664C10.6032 13.303 10.4179 13.3797 10.2247 13.3797H2.94061C2.74742 13.3797 2.56215 13.303 2.42554 13.1664C2.28894 13.0298 2.2122 12.8445 2.2122 12.6513V10.4661C2.2122 10.2729 2.13545 10.0876 1.99885 9.95099C1.86225 9.81439 1.67697 9.73765 1.48378 9.73765C1.2906 9.73765 1.10532 9.81439 0.968718 9.95099C0.832114 10.0876 0.755371 10.2729 0.755371 10.4661V12.6513C0.755371 13.2309 0.985601 13.7867 1.39541 14.1965C1.80522 14.6063 2.36105 14.8365 2.94061 14.8365H10.2247C10.8043 14.8365 11.3601 14.6063 11.7699 14.1965C12.1797 13.7867 12.41 13.2309 12.41 12.6513V2.45352C12.41 1.87396 12.1797 1.31813 11.7699 0.908321C11.3601 0.49851 10.8043 0.26828 10.2247 0.26828Z" fill="white"/>
</svg>
