<svg width="20" height="15" viewBox="0 0 20 15" fill="none" xmlns="http://www.w3.org/2000/svg">
<path d="M17.0715 14.2372H3.68396C2.97973 14.2364 2.30459 13.9563 1.80662 13.4583C1.30866 12.9604 1.02854 12.2852 1.02771 11.581V3.56848C1.02854 2.86425 1.30866 2.18911 1.80662 1.69114C2.30459 1.19318 2.97973 0.913058 3.68396 0.912231H17.0715C17.7757 0.913058 18.4508 1.19318 18.9488 1.69114C19.4468 2.18911 19.7269 2.86425 19.7277 3.56848V11.581C19.7269 12.2852 19.4468 12.9604 18.9488 13.4583C18.4508 13.9563 17.7757 14.2364 17.0715 14.2372ZM3.68396 1.84973C3.22812 1.84973 2.79095 2.03081 2.46862 2.35314C2.14629 2.67547 1.96521 3.11264 1.96521 3.56848V11.581C1.96521 12.0368 2.14629 12.474 2.46862 12.7963C2.79095 13.1186 3.22812 13.2997 3.68396 13.2997H17.0715C17.5273 13.2997 17.9645 13.1186 18.2868 12.7963C18.6091 12.474 18.7902 12.0368 18.7902 11.581V3.56848C18.7902 3.11264 18.6091 2.67547 18.2868 2.35314C17.9645 2.03081 17.5273 1.84973 17.0715 1.84973H3.68396Z" fill="#C0C0C0" stroke="#C0C0C0" stroke-width="0.5"/>
<path d="M10.3779 9.47473C9.79965 9.47563 9.23685 9.28803 8.77479 8.94035L1.47791 3.4216C1.42635 3.38542 1.38262 3.33922 1.34932 3.28575C1.31602 3.23229 1.29383 3.17267 1.28409 3.11044C1.27434 3.04821 1.27724 2.98466 1.2926 2.92358C1.30797 2.86249 1.33548 2.80513 1.37351 2.75492C1.41154 2.70471 1.45929 2.66268 1.51393 2.63133C1.56856 2.59999 1.62895 2.57997 1.69149 2.57249C1.75403 2.565 1.81743 2.5702 1.87792 2.58777C1.93841 2.60533 1.99473 2.63491 2.04354 2.67473L9.34041 8.19973C9.64006 8.42341 10.004 8.54426 10.3779 8.54426C10.7518 8.54426 11.1158 8.42341 11.4154 8.19973L18.7123 2.67473C18.7611 2.63491 18.8174 2.60533 18.8779 2.58777C18.9384 2.5702 19.0018 2.565 19.0643 2.57249C19.1269 2.57997 19.1873 2.59999 19.2419 2.63133C19.2965 2.66268 19.3443 2.70471 19.3823 2.75492C19.4203 2.80513 19.4479 2.86249 19.4632 2.92358C19.4786 2.98466 19.4815 3.04821 19.4717 3.11044C19.462 3.17267 19.4398 3.23229 19.4065 3.28575C19.3732 3.33922 19.3295 3.38542 19.2779 3.4216L11.981 8.94035C11.519 9.28803 10.9562 9.47563 10.3779 9.47473Z" fill="#C0C0C0" stroke="#C0C0C0" stroke-width="0.5"/>
<path d="M1.68099 12.931C1.58592 12.9311 1.49305 12.9024 1.41471 12.8485C1.33637 12.7946 1.27626 12.7182 1.24236 12.6294C1.20846 12.5406 1.20237 12.4435 1.2249 12.3512C1.24742 12.2588 1.2975 12.1755 1.36849 12.1122L7.11849 6.98411C7.21131 6.90123 7.33326 6.85862 7.4575 6.86565C7.58175 6.87268 7.69811 6.92878 7.78099 7.02161C7.86387 7.11443 7.90648 7.23638 7.89945 7.36062C7.89241 7.48487 7.83631 7.60123 7.74349 7.68411L1.99349 12.8122C1.9081 12.8899 1.79643 12.9324 1.68099 12.931ZM19.0747 12.931C18.9593 12.9324 18.8476 12.8899 18.7622 12.8122L13.0122 7.68411C12.9663 7.64307 12.9288 7.59338 12.9021 7.53788C12.8753 7.48237 12.8598 7.42214 12.8563 7.36062C12.8528 7.29911 12.8615 7.2375 12.8818 7.17933C12.9021 7.12117 12.9337 7.06757 12.9747 7.02161C13.0158 6.97564 13.0655 6.93822 13.121 6.91146C13.1765 6.8847 13.2367 6.86913 13.2982 6.86565C13.3597 6.86217 13.4213 6.87084 13.4795 6.89116C13.5377 6.91149 13.5913 6.94307 13.6372 6.98411L19.3841 12.1122C19.4551 12.1755 19.5052 12.2588 19.5277 12.3512C19.5502 12.4435 19.5441 12.5406 19.5102 12.6294C19.4763 12.7182 19.4162 12.7946 19.3379 12.8485C19.2595 12.9024 19.1667 12.9311 19.0716 12.931H19.0747Z" fill="#C0C0C0" stroke="#C0C0C0" stroke-width="0.5"/>
</svg>
