<svg width="15" height="19" viewBox="0 0 15 19" fill="none" xmlns="http://www.w3.org/2000/svg">
<path d="M7.68133 17.7838C7.82064 17.783 7.95558 17.7357 8.06424 17.6496C8.29892 17.4424 14.4748 12.5286 14.4748 7.41976C14.4748 5.64119 13.7591 3.93547 12.4851 2.67783C11.211 1.42019 9.48308 0.713654 7.68133 0.713654C5.87958 0.713654 4.15162 1.42019 2.87759 2.67783C1.60356 3.93547 0.887817 5.64119 0.887817 7.41976C0.887817 12.5286 7.06374 17.4424 7.29842 17.6496C7.40708 17.7357 7.54203 17.783 7.68133 17.7838ZM2.123 7.41976C2.123 5.96457 2.70861 4.56898 3.751 3.54C4.79339 2.51102 6.20717 1.93295 7.68133 1.93295C9.15549 1.93295 10.5693 2.51102 11.6117 3.54C12.6541 4.56898 13.2397 5.96457 13.2397 7.41976C13.2397 11.2605 8.9968 15.2293 7.68133 16.3755C6.36586 15.2293 2.123 11.2605 2.123 7.41976Z" fill="#C0C0C0" stroke="#C0C0C0" stroke-width="0.5"/>
<path d="M10.7693 7.41978C10.7693 6.81689 10.5882 6.22755 10.2489 5.72627C9.90958 5.22499 9.42731 4.83429 8.86306 4.60358C8.29881 4.37286 7.67792 4.3125 7.07892 4.43012C6.47991 4.54773 5.92969 4.83805 5.49783 5.26435C5.06597 5.69065 4.77187 6.2338 4.65272 6.8251C4.53357 7.4164 4.59472 8.02929 4.82844 8.58628C5.06216 9.14328 5.45795 9.61935 5.96577 9.95429C6.47358 10.2892 7.07061 10.468 7.68135 10.468C8.50032 10.468 9.28576 10.1469 9.86486 9.5752C10.444 9.00355 10.7693 8.22822 10.7693 7.41978ZM5.82857 7.41978C5.82857 7.05805 5.93723 6.70444 6.14082 6.40367C6.3444 6.10291 6.63377 5.86849 6.97232 5.73006C7.31087 5.59163 7.6834 5.55541 8.04281 5.62598C8.40221 5.69655 8.73234 5.87074 8.99146 6.12652C9.25057 6.3823 9.42703 6.70819 9.49852 7.06297C9.57001 7.41775 9.53332 7.78549 9.39309 8.11968C9.25286 8.45388 9.01538 8.73952 8.71069 8.94048C8.40601 9.14145 8.04779 9.24872 7.68135 9.24872C7.18996 9.24872 6.7187 9.05603 6.37124 8.71303C6.02377 8.37004 5.82857 7.90484 5.82857 7.41978Z" fill="#C0C0C0" stroke="#C0C0C0" stroke-width="0.5"/>
</svg>
