<svg width="7" height="9" viewBox="0 0 7 9" fill="none" xmlns="http://www.w3.org/2000/svg">
<path d="M3.27719 8.566C3.34236 8.56563 3.40549 8.54352 3.45632 8.50326C3.56611 8.40629 6.45526 6.10759 6.45526 3.71763C6.45526 2.88559 6.12043 2.08764 5.52443 1.4993C4.92842 0.910968 4.12007 0.580444 3.27719 0.580444C2.43432 0.580444 1.62596 0.910968 1.02996 1.4993C0.433953 2.08764 0.0991211 2.88559 0.0991211 3.71763C0.0991211 6.10759 2.98828 8.40629 3.09806 8.50326C3.1489 8.54352 3.21202 8.56563 3.27719 8.566ZM0.676952 3.71763C0.676952 3.03687 0.950905 2.384 1.43854 1.90264C1.92618 1.42127 2.58757 1.15084 3.27719 1.15084C3.96682 1.15084 4.6282 1.42127 5.11584 1.90264C5.60348 2.384 5.87743 3.03687 5.87743 3.71763C5.87743 5.51438 3.89258 7.37102 3.27719 7.90719C2.6618 7.37102 0.676952 5.51438 0.676952 3.71763Z" fill="black"/>
<path d="M4.7218 3.71763C4.7218 3.4356 4.63707 3.1599 4.47834 2.9254C4.31961 2.69089 4.094 2.50812 3.83004 2.40019C3.56607 2.29226 3.27562 2.26402 2.9954 2.31904C2.71518 2.37406 2.45778 2.50988 2.25575 2.70931C2.05372 2.90873 1.91614 3.16282 1.8604 3.43944C1.80466 3.71605 1.83327 4.00277 1.9426 4.26334C2.05194 4.5239 2.2371 4.74661 2.47466 4.9033C2.71222 5.05999 2.99151 5.14363 3.27722 5.14363C3.66035 5.14363 4.02778 4.99339 4.29869 4.72596C4.5696 4.45854 4.7218 4.09583 4.7218 3.71763ZM2.41047 3.71763C2.41047 3.54841 2.46131 3.38299 2.55655 3.24229C2.65179 3.10159 2.78715 2.99193 2.94553 2.92717C3.10391 2.86241 3.27818 2.84547 3.44631 2.87848C3.61445 2.91149 3.76889 2.99298 3.8901 3.11264C4.01132 3.23229 4.09387 3.38475 4.12731 3.55072C4.16076 3.71669 4.14359 3.88872 4.07799 4.04506C4.01239 4.2014 3.90129 4.33502 3.75876 4.42904C3.61622 4.52305 3.44865 4.57323 3.27722 4.57323C3.04734 4.57323 2.82688 4.48309 2.66434 4.32263C2.50179 4.16218 2.41047 3.94455 2.41047 3.71763Z" fill="black"/>
</svg>
