<svg width="125" height="22" viewBox="0 0 125 22" fill="none" xmlns="http://www.w3.org/2000/svg">
<path d="M7.24815 6.81612L3.35615 15.9441H2.06815L6.01615 6.94212H0.612146V5.85012H7.24815V6.81612ZM8.50672 14.9221C9.69206 13.9701 10.6207 13.1908 11.2927 12.5841C11.9647 11.9681 12.5294 11.3288 12.9867 10.6661C13.4534 9.99412 13.6867 9.33612 13.6867 8.69212C13.6867 8.08546 13.5374 7.60946 13.2387 7.26412C12.9494 6.90946 12.4781 6.73212 11.8247 6.73212C11.1901 6.73212 10.6954 6.93279 10.3407 7.33412C9.99539 7.72612 9.80872 8.25346 9.78072 8.91612H8.54872C8.58606 7.87079 8.90339 7.06346 9.50072 6.49412C10.0981 5.92479 10.8681 5.64012 11.8107 5.64012C12.7721 5.64012 13.5327 5.90612 14.0927 6.43812C14.6621 6.97012 14.9467 7.70279 14.9467 8.63612C14.9467 9.41079 14.7134 10.1668 14.2467 10.9041C13.7894 11.6321 13.2667 12.2761 12.6787 12.8361C12.0907 13.3868 11.3394 14.0308 10.4247 14.7681H15.2407V15.8321H8.50672V14.9221ZM22.9435 6.81612L19.0515 15.9441H17.7635L21.7115 6.94212H16.3075V5.85012H22.9435V6.81612ZM24.202 14.9221C25.3874 13.9701 26.316 13.1908 26.988 12.5841C27.66 11.9681 28.2247 11.3288 28.682 10.6661C29.1487 9.99412 29.382 9.33612 29.382 8.69212C29.382 8.08546 29.2327 7.60946 28.934 7.26412C28.6447 6.90946 28.1734 6.73212 27.52 6.73212C26.8854 6.73212 26.3907 6.93279 26.036 7.33412C25.6907 7.72612 25.504 8.25346 25.476 8.91612H24.244C24.2814 7.87079 24.5987 7.06346 25.196 6.49412C25.7934 5.92479 26.5634 5.64012 27.506 5.64012C28.4674 5.64012 29.228 5.90612 29.788 6.43812C30.3574 6.97012 30.642 7.70279 30.642 8.63612C30.642 9.41079 30.4087 10.1668 29.942 10.9041C29.4847 11.6321 28.962 12.2761 28.374 12.8361C27.786 13.3868 27.0347 14.0308 26.12 14.7681H30.936V15.8321H24.202V14.9221Z" fill="black"/>
<circle cx="46.7616" cy="11.4441" r="2.33799" fill="black"/>
<circle cx="57.5279" cy="11.4441" r="2.33799" fill="black"/>
<circle cx="68.294" cy="11.4441" r="2.33799" fill="black"/>
<circle cx="79.0604" cy="11.4441" r="2.33799" fill="black"/>
<circle cx="89.8265" cy="11.4441" r="2.33799" fill="black"/>
<circle cx="100.593" cy="11.4441" r="2.33799" fill="black"/>
<circle cx="111.359" cy="11.4441" r="2.33799" fill="black"/>
<circle cx="122.125" cy="11.4441" r="2.33799" fill="black"/>
</svg>
