<svg width="13" height="15" viewBox="0 0 13 15" fill="none" xmlns="http://www.w3.org/2000/svg">
<path d="M4.42788 11.4V11.92C4.42788 12.4716 4.6462 13.0007 5.0348 13.3908C5.4234 13.7809 5.95046 14 6.50003 14C7.0496 14 7.57666 13.7809 7.96527 13.3908C8.35387 13.0007 8.57219 12.4716 8.57219 11.92V11.4M1.85084 5.67997C1.84998 5.06326 1.97073 4.45247 2.20613 3.88282C2.44154 3.31316 2.78693 2.79591 3.22242 2.36088C3.6579 1.92585 4.17485 1.58163 4.74348 1.34808C5.31211 1.11453 5.92117 0.996261 6.53555 1.00009C9.09917 1.01922 11.1497 3.15818 11.1497 5.73872V6.19998C11.1497 8.528 11.635 9.87892 12.0623 10.6173C12.1084 10.6962 12.1329 10.7858 12.1334 10.8773C12.1338 10.9687 12.1103 11.0587 12.0651 11.138C12.0199 11.2174 11.9547 11.2834 11.8759 11.3294C11.7972 11.3754 11.7078 11.3998 11.6167 11.4H1.38335C1.29225 11.3998 1.20282 11.3754 1.12409 11.3294C1.04536 11.2834 0.980114 11.2174 0.934924 11.138C0.889734 11.0586 0.866204 10.9686 0.866707 10.8772C0.86721 10.7857 0.891729 10.696 0.93779 10.6172C1.36538 9.87878 1.85083 8.52788 1.85083 6.19998L1.85084 5.67997Z" stroke="white" stroke-linecap="round" stroke-linejoin="round"/>
</svg>
