<svg width="21" height="22" viewBox="0 0 21 22" fill="none" xmlns="http://www.w3.org/2000/svg">
<path d="M16.8907 3.83121L17.3208 5.12971C17.4461 5.54078 17.7052 5.89748 18.0562 6.14255L19.1443 6.87837C19.5097 7.12513 19.7798 7.49048 19.9097 7.91349C20.0397 8.3365 20.0215 8.79154 19.8583 9.20269L19.4282 10.2545C19.241 10.7195 19.241 11.2395 19.4282 11.7045L19.8583 12.7303C20.0211 13.1332 20.0444 13.5795 19.9242 13.9973C19.804 14.4151 19.5475 14.7799 19.196 15.033L18.2283 15.7298C17.8736 15.9836 17.6156 16.3516 17.4971 16.773L17.1487 18.0022C17.0274 18.4338 16.7606 18.8094 16.3941 19.0645C16.0276 19.3196 15.5842 19.4383 15.1402 19.4003L14.0951 19.3137C13.6005 19.2724 13.1094 19.4278 12.7274 19.7466L11.721 20.5646C11.3778 20.8462 10.9487 21 10.5059 21C10.0632 21 9.63406 20.8462 9.29093 20.5646L8.43074 19.8548C8.08594 19.572 7.65404 19.419 7.20928 19.4219H5.69966C5.26522 19.4231 4.8433 19.2754 4.50331 19.0032C4.16328 18.7311 3.9254 18.3506 3.82875 17.9243L3.55349 16.747C3.44589 16.272 3.16301 15.8558 2.76212 15.5827L1.83743 14.8988C1.48742 14.6592 1.22625 14.3096 1.09473 13.9047C0.963206 13.4998 0.96878 13.0625 1.11057 12.661L1.54066 11.4751C1.6998 11.0437 1.6998 10.5691 1.54066 10.1376L1.15358 9.09881C0.998792 8.68623 0.98906 8.23271 1.126 7.81377C1.26293 7.39483 1.5383 7.0357 1.90624 6.79613L2.92556 6.13389C3.31965 5.87739 3.60717 5.4849 3.73413 5.03016L4.0352 3.93942C4.15584 3.50511 4.4234 3.1269 4.79173 2.87001C5.16002 2.61317 5.6059 2.49388 6.05233 2.5327L7.01574 2.61494C7.51142 2.65424 8.00302 2.49916 8.38773 2.18211L9.30383 1.43764C9.64795 1.15461 10.0787 1 10.5231 1C10.9676 1 11.3983 1.15461 11.7425 1.43764L12.5424 2.11285C12.9271 2.43302 13.4213 2.58845 13.9187 2.54569L14.9294 2.47211C15.3605 2.44397 15.7885 2.56274 16.1443 2.80933C16.5001 3.05587 16.763 3.41586 16.8907 3.83121Z" stroke="white" stroke-width="1.5" stroke-miterlimit="10"/>
<path d="M14 6.80403L6 15.3028M7.84897 9.22501C8.68768 9.22501 9.3676 8.50306 9.3676 7.6125C9.3676 6.7219 8.68768 6 7.84897 6C7.01027 6 6.33035 6.7219 6.33035 7.6125C6.33035 8.50306 7.01027 9.22501 7.84897 9.22501ZM12.4814 16C13.3201 16 14 15.2781 14 14.3875C14 13.4969 13.3201 12.775 12.4814 12.775C11.6427 12.775 10.9628 13.4969 10.9628 14.3875C10.9628 15.2781 11.6427 16 12.4814 16Z" stroke="white" stroke-width="1.5" stroke-linecap="round" stroke-linejoin="round"/>
</svg>
