<svg width="20" height="22" viewBox="0 0 20 22" fill="none" xmlns="http://www.w3.org/2000/svg">
<path d="M11.9975 17.1322C12.2637 17.1322 12.519 17.0219 12.7072 16.8256C12.8954 16.6294 13.0011 16.3632 13.0011 16.0856V13.9925C13.0011 13.7149 12.8954 13.4487 12.7072 13.2524C12.519 13.0562 12.2637 12.9459 11.9975 12.9459C11.7313 12.9459 11.4761 13.0562 11.2879 13.2524C11.0997 13.4487 10.9939 13.7149 10.9939 13.9925V16.0856C10.9939 16.3632 11.0997 16.6294 11.2879 16.8256C11.4761 17.0219 11.7313 17.1322 11.9975 17.1322ZM7.98309 17.1322C8.24926 17.1322 8.50453 17.0219 8.69275 16.8256C8.88096 16.6294 8.9867 16.3632 8.9867 16.0856V13.9925C8.9867 13.7149 8.88096 13.4487 8.69275 13.2524C8.50453 13.0562 8.24926 12.9459 7.98309 12.9459C7.71691 12.9459 7.46164 13.0562 7.27343 13.2524C7.08522 13.4487 6.97948 13.7149 6.97948 13.9925V16.0856C6.97948 16.3632 7.08522 16.6294 7.27343 16.8256C7.46164 17.0219 7.71691 17.1322 7.98309 17.1322ZM17.0156 4.57338H15.6306L13.8943 0.962725C13.8413 0.829867 13.7625 0.709848 13.663 0.610167C13.5634 0.510486 13.4452 0.433285 13.3158 0.383391C13.1863 0.333496 13.0484 0.311979 12.9106 0.320184C12.7728 0.328389 12.6382 0.366141 12.515 0.431079C12.3918 0.496017 12.2829 0.586746 12.1948 0.697597C12.1068 0.808448 12.0417 0.937037 12.0035 1.07533C11.9653 1.21362 11.9548 1.35865 11.9728 1.50134C11.9908 1.64403 12.0368 1.78132 12.1079 1.90464L13.3825 4.57338H6.59811L7.87269 1.90464C7.97011 1.66069 7.97542 1.38734 7.88757 1.13948C7.79971 0.891612 7.62519 0.68758 7.39905 0.568344C7.17291 0.449107 6.91188 0.423494 6.66838 0.496647C6.42487 0.569799 6.21692 0.736302 6.08627 0.962725L4.35002 4.57338H2.96504C2.25568 4.58463 1.57291 4.85673 1.03716 5.3417C0.501408 5.82666 0.147085 6.49333 0.036685 7.22413C-0.0737153 7.95493 0.0668992 8.70291 0.433728 9.33614C0.800557 9.96938 1.37004 10.4472 2.04172 10.6853L2.78439 18.4927C2.85929 19.2699 3.20927 19.99 3.766 20.5125C4.32273 21.035 5.04623 21.3224 5.79522 21.3184H14.2055C14.9545 21.3224 15.678 21.035 16.2347 20.5125C16.7914 19.99 17.1414 19.2699 17.2163 18.4927L17.959 10.6853C18.6321 10.4465 19.2025 9.96693 19.5691 9.33157C19.9356 8.69622 20.0747 7.94608 19.9617 7.21402C19.8487 6.48196 19.4909 5.81522 18.9517 5.3319C18.4125 4.84859 17.7266 4.57988 17.0156 4.57338ZM15.199 18.2834C15.1741 18.5424 15.0574 18.7825 14.8718 18.9567C14.6863 19.1308 14.4451 19.2266 14.1954 19.2253H5.78518C5.53552 19.2266 5.29435 19.1308 5.10878 18.9567C4.9232 18.7825 4.80654 18.5424 4.78158 18.2834L4.06901 10.8528H15.9116L15.199 18.2834ZM17.0156 8.75964H2.96504C2.69887 8.75964 2.4436 8.64938 2.25539 8.45311C2.06717 8.25684 1.96144 7.99065 1.96144 7.71308C1.96144 7.43551 2.06717 7.16931 2.25539 6.97304C2.4436 6.77678 2.69887 6.66651 2.96504 6.66651H17.0156C17.2817 6.66651 17.537 6.77678 17.7252 6.97304C17.9134 7.16931 18.0192 7.43551 18.0192 7.71308C18.0192 7.99065 17.9134 8.25684 17.7252 8.45311C17.537 8.64938 17.2817 8.75964 17.0156 8.75964Z" fill="white"/>
</svg>
