<svg width="19" height="20" viewBox="0 0 19 20" fill="none" xmlns="http://www.w3.org/2000/svg">
<path d="M15.7484 19.3278H3.00679C2.28266 19.3278 1.58818 19.0401 1.07615 18.5281C0.564106 18.016 0.276445 17.3216 0.276445 16.5974V8.40638C0.276445 7.68225 0.564106 6.98777 1.07615 6.47573C1.58818 5.96369 2.28266 5.67603 3.00679 5.67603H4.82702V4.76592C4.82702 3.55903 5.30646 2.40157 6.15986 1.54817C7.01326 0.694774 8.17071 0.21534 9.3776 0.21534C10.5845 0.21534 11.7419 0.694774 12.5953 1.54817C13.4487 2.40157 13.9282 3.55903 13.9282 4.76592V5.67603H15.7484C16.4725 5.67603 17.167 5.96369 17.6791 6.47573C18.1911 6.98777 18.4788 7.68225 18.4788 8.40638V16.5974C18.4788 17.3216 18.1911 18.016 17.6791 18.5281C17.167 19.0401 16.4725 19.3278 15.7484 19.3278ZM12.1079 4.76592C12.1079 4.04179 11.8203 3.34731 11.3082 2.83527C10.7962 2.32323 10.1017 2.03557 9.3776 2.03557C8.65347 2.03557 7.95899 2.32323 7.44696 2.83527C6.93492 3.34731 6.64726 4.04179 6.64725 4.76592V5.67603H12.1079V4.76592ZM16.6585 8.40638C16.6585 8.165 16.5626 7.93351 16.392 7.76283C16.2213 7.59215 15.9898 7.49627 15.7484 7.49627H3.00679C2.76542 7.49627 2.53392 7.59215 2.36324 7.76283C2.19256 7.93351 2.09668 8.165 2.09668 8.40638V16.5974C2.09668 16.8388 2.19256 17.0703 2.36324 17.241C2.53392 17.4117 2.76542 17.5075 3.00679 17.5075H15.7484C15.9898 17.5075 16.2213 17.4117 16.392 17.241C16.5626 17.0703 16.6585 16.8388 16.6585 16.5974V8.40638Z" fill="#C0C0C0"/>
<path d="M9.37777 14.3221C8.37248 14.3221 7.55753 13.5072 7.55753 12.5019C7.55753 11.4966 8.37248 10.6817 9.37777 10.6817C10.3831 10.6817 11.198 11.4966 11.198 12.5019C11.198 13.5072 10.3831 14.3221 9.37777 14.3221Z" fill="#C0C0C0"/>
</svg>
