<svg width="21" height="22" viewBox="0 0 21 22" fill="none" xmlns="http://www.w3.org/2000/svg">
<path d="M14.3991 11.5633C15.4336 10.7538 16.1887 9.64384 16.5593 8.38774C16.9299 7.13163 16.8977 5.79187 16.467 4.55485C16.0364 3.31783 15.2287 2.24505 14.1565 1.48578C13.0842 0.726502 11.8006 0.318481 10.4843 0.318481C9.16806 0.318481 7.88449 0.726502 6.81223 1.48578C5.73997 2.24505 4.93233 3.31783 4.50168 4.55485C4.07102 5.79187 4.03877 7.13163 4.4094 8.38774C4.78003 9.64384 5.53512 10.7538 6.56961 11.5633C4.79699 12.2696 3.25031 13.441 2.09446 14.9527C0.938618 16.4645 0.216941 18.2598 0.0063647 20.1473C-0.00887787 20.2851 0.00332212 20.4246 0.0422678 20.5577C0.0812135 20.6908 0.146142 20.815 0.233347 20.9232C0.409465 21.1416 0.665627 21.2815 0.945479 21.3121C1.22533 21.3428 1.50595 21.2616 1.7256 21.0864C1.94526 20.9113 2.08595 20.6565 2.11673 20.3782C2.34844 18.3268 3.33198 16.4323 4.87944 15.0565C6.4269 13.6807 8.4298 12.9202 10.5055 12.9202C12.5811 12.9202 14.584 13.6807 16.1315 15.0565C17.6789 16.4323 18.6625 18.3268 18.8942 20.3782C18.9229 20.636 19.0466 20.8742 19.2414 21.0467C19.4363 21.2191 19.6885 21.3137 19.9494 21.3121H20.0654C20.342 21.2805 20.5948 21.1414 20.7688 20.9252C20.9427 20.709 21.0237 20.4331 20.994 20.1578C20.7824 18.2649 20.0569 16.465 18.8951 14.9509C17.7333 13.4369 16.1791 12.2658 14.3991 11.5633ZM10.4843 10.8182C9.64957 10.8182 8.83353 10.572 8.13943 10.1108C7.44534 9.64954 6.90435 8.99397 6.58489 8.22696C6.26544 7.45996 6.18185 6.61596 6.34471 5.80171C6.50757 4.98746 6.90955 4.23952 7.49984 3.65248C8.09012 3.06544 8.84218 2.66566 9.66092 2.50369C10.4797 2.34173 11.3283 2.42486 12.0996 2.74256C12.8708 3.06027 13.53 3.59828 13.9938 4.28857C14.4575 4.97886 14.7051 5.79042 14.7051 6.62062C14.7051 7.73389 14.2604 8.80156 13.4689 9.58876C12.6773 10.376 11.6038 10.8182 10.4843 10.8182Z" fill="white"/>
</svg>
