<svg width="13" height="15" viewBox="0 0 13 15" fill="none" xmlns="http://www.w3.org/2000/svg">
<path d="M12.1405 1.57544C12.0558 1.50698 11.957 1.45836 11.8511 1.43315C11.7452 1.40794 11.635 1.40678 11.5286 1.42976C10.7502 1.59288 9.94674 1.59496 9.16755 1.43586C8.38836 1.27677 7.64998 0.959868 6.99787 0.504672C6.87594 0.420084 6.73108 0.374756 6.58268 0.374756C6.43428 0.374756 6.28941 0.420084 6.16748 0.504672C5.51537 0.959868 4.777 1.27677 3.99781 1.43586C3.21862 1.59496 2.41511 1.59288 1.63675 1.42976C1.53036 1.40678 1.42017 1.40794 1.31429 1.43315C1.2084 1.45836 1.10951 1.50698 1.02489 1.57544C0.940377 1.644 0.872301 1.73062 0.825662 1.82894C0.779022 1.92726 0.755005 2.03478 0.755375 2.1436V7.57027C0.754728 8.61464 1.0036 9.64404 1.48126 10.5728C1.95893 11.5015 2.65156 12.3027 3.50149 12.9095L6.1602 14.8034C6.28356 14.8912 6.43124 14.9384 6.58268 14.9384C6.73412 14.9384 6.88179 14.8912 7.00516 14.8034L9.66386 12.9095C10.5138 12.3027 11.2064 11.5015 11.6841 10.5728C12.1618 9.64404 12.4106 8.61464 12.41 7.57027V2.1436C12.4103 2.03478 12.3863 1.92726 12.3397 1.82894C12.2931 1.73062 12.225 1.644 12.1405 1.57544ZM10.9532 7.57027C10.9537 8.38228 10.7603 9.18267 10.3891 9.90485C10.0179 10.627 9.47955 11.2501 8.8189 11.7222L6.58268 13.3175L4.34645 11.7222C3.68581 11.2501 3.14747 10.627 2.77625 9.90485C2.40502 9.18267 2.21164 8.38228 2.2122 7.57027V2.98128C3.73927 3.11198 5.26865 2.75767 6.58268 1.96878C7.8967 2.75767 9.42609 3.11198 10.9532 2.98128V7.57027ZM7.70443 5.90221L5.745 7.86892L5.09671 7.21335C4.95955 7.07619 4.77352 6.99913 4.57954 6.99913C4.38556 6.99913 4.19953 7.07619 4.06237 7.21335C3.92521 7.35052 3.84815 7.53655 3.84815 7.73053C3.84815 7.9245 3.92521 8.11054 4.06237 8.2477L5.22783 9.41316C5.29554 9.48143 5.37611 9.53562 5.46487 9.5726C5.55364 9.60958 5.64884 9.62862 5.745 9.62862C5.84116 9.62862 5.93637 9.60958 6.02513 9.5726C6.1139 9.53562 6.19446 9.48143 6.26218 9.41316L8.76791 6.92927C8.90508 6.79211 8.98213 6.60608 8.98213 6.4121C8.98213 6.21812 8.90508 6.03209 8.76791 5.89493C8.63075 5.75776 8.44472 5.68071 8.25074 5.68071C8.05676 5.68071 7.87073 5.75776 7.73357 5.89493L7.70443 5.90221Z" fill="white"/>
</svg>
