<svg width="15" height="15" viewBox="0 0 15 15" fill="none" xmlns="http://www.w3.org/2000/svg">
<path d="M14.8522 6.06162C14.8062 5.92839 14.7225 5.81136 14.6113 5.72473C14.5001 5.63811 14.3662 5.5856 14.2258 5.57359L10.0811 4.969L8.22363 1.20311C8.16399 1.07996 8.07086 0.976095 7.95491 0.903422C7.83897 0.83075 7.7049 0.792206 7.56806 0.792206C7.43122 0.792206 7.29715 0.83075 7.18121 0.903422C7.06527 0.976095 6.97214 1.07996 6.91249 1.20311L5.05504 4.96172L0.910369 5.57359C0.775556 5.59275 0.648814 5.64931 0.544524 5.73687C0.440234 5.82442 0.362573 5.93945 0.320355 6.06891C0.281709 6.19541 0.278241 6.33006 0.310323 6.45838C0.342405 6.58671 0.408826 6.70388 0.502458 6.79732L3.5108 9.71097L2.78239 13.8484C2.75298 13.9856 2.76385 14.1284 2.8137 14.2596C2.86355 14.3909 2.95024 14.5049 3.06336 14.588C3.17648 14.6711 3.3112 14.7197 3.45131 14.7281C3.59143 14.7364 3.73097 14.7041 3.85316 14.635L7.56806 12.6902L11.283 14.635C11.3852 14.6927 11.5007 14.7228 11.618 14.7224C11.7723 14.723 11.9228 14.6745 12.0478 14.5841C12.1608 14.5031 12.2483 14.3915 12.2999 14.2624C12.3516 14.1334 12.3652 13.9922 12.3392 13.8556L11.6108 9.71825L14.6191 6.8046C14.7243 6.7155 14.802 6.59839 14.8433 6.46687C14.8845 6.33536 14.8876 6.19483 14.8522 6.06162ZM10.3725 8.97527C10.2881 9.05715 10.2249 9.15821 10.1881 9.26983C10.1513 9.38145 10.1421 9.50032 10.1612 9.61628L10.6857 12.6756L7.94684 11.2188C7.84039 11.1661 7.72324 11.1387 7.60448 11.1387C7.48573 11.1387 7.36857 11.1661 7.26213 11.2188L4.5233 12.6756L5.04775 9.61628C5.06687 9.50032 5.05764 9.38145 5.02085 9.26983C4.98407 9.15821 4.92082 9.05715 4.83651 8.97527L2.65128 6.79004L5.71789 6.3457C5.8359 6.32929 5.94807 6.28418 6.04459 6.21434C6.1411 6.14449 6.21901 6.05204 6.27149 5.94508L7.56806 3.16982L8.93748 5.95236C8.98995 6.05932 9.06786 6.15177 9.16438 6.22162C9.26089 6.29147 9.37307 6.33657 9.49107 6.35299L12.5577 6.79732L10.3725 8.97527Z" fill="white"/>
</svg>
