<svg width="9" height="8" viewBox="0 0 9 8" fill="none" xmlns="http://www.w3.org/2000/svg">
<path d="M5.16271 7.71301C4.69517 7.71312 4.2331 7.61239 3.80803 7.41769C3.74264 7.38751 3.69192 7.33259 3.66702 7.26501C3.64212 7.19743 3.64509 7.12273 3.67527 7.05734C3.70545 6.99195 3.76037 6.94123 3.82795 6.91633C3.89552 6.89143 3.97023 6.8944 4.03562 6.92458C4.50741 7.14074 5.03137 7.21685 5.54517 7.14386C6.05897 7.07087 6.541 6.85186 6.93394 6.51287C7.32687 6.17387 7.61419 5.72916 7.76172 5.23162C7.90924 4.73407 7.91077 4.20462 7.76612 3.70623C7.62147 3.20784 7.33673 2.76147 6.94575 2.42022C6.55478 2.07896 6.07402 1.85717 5.56065 1.78121C5.04728 1.70526 4.5229 1.77835 4.04986 1.99177C3.57682 2.2052 3.17503 2.54999 2.89226 2.98515C2.87269 3.01504 2.84743 3.04078 2.81791 3.0609C2.78839 3.08102 2.7552 3.09514 2.72023 3.10243C2.68526 3.10973 2.64919 3.11007 2.61409 3.10342C2.57899 3.09678 2.54554 3.08329 2.51566 3.06372C2.48577 3.04415 2.46003 3.01889 2.43991 2.98937C2.41978 2.95986 2.40567 2.92666 2.39837 2.89169C2.39108 2.85672 2.39074 2.82066 2.39738 2.78556C2.40402 2.75046 2.41752 2.71701 2.43708 2.68712C2.74452 2.21518 3.16929 1.83121 3.66976 1.57282C4.17024 1.31443 4.72926 1.19049 5.29204 1.21314C5.85483 1.23579 6.40208 1.40426 6.88017 1.70204C7.35826 1.99982 7.75079 2.41669 8.0193 2.91181C8.28781 3.40692 8.4231 3.96331 8.41189 4.52644C8.40069 5.08957 8.24338 5.64013 7.95539 6.12417C7.66739 6.60822 7.25859 7.00915 6.76903 7.28767C6.27947 7.56619 5.72596 7.71276 5.16271 7.71301Z" fill="black"/>
<path d="M5.43357 0.12677H4.8917C4.67613 0.12677 4.46938 0.212405 4.31695 0.364837C4.16452 0.517269 4.07889 0.724011 4.07889 0.939582V1.48146C4.07889 1.55331 4.10743 1.62223 4.15824 1.67304C4.20905 1.72385 4.27797 1.75239 4.34982 1.75239H5.97545C6.0473 1.75239 6.11622 1.72385 6.16703 1.67304C6.21784 1.62223 6.24639 1.55331 6.24639 1.48146V0.939582C6.24639 0.724011 6.16075 0.517269 6.00832 0.364837C5.85589 0.212405 5.64914 0.12677 5.43357 0.12677ZM6.72865 3.21004C6.68395 3.15421 6.61899 3.11832 6.54793 3.1102C6.47687 3.10208 6.40549 3.12239 6.34934 3.16669L5.58801 3.77359C5.46118 3.69194 5.31347 3.64866 5.16264 3.64896C5.00188 3.64896 4.84473 3.69663 4.71106 3.78594C4.57739 3.87525 4.47321 4.0022 4.41169 4.15072C4.35017 4.29924 4.33408 4.46267 4.36544 4.62034C4.3968 4.77801 4.47422 4.92284 4.58789 5.03651C4.70156 5.15019 4.84639 5.2276 5.00406 5.25896C5.16173 5.29033 5.32516 5.27423 5.47369 5.21271C5.62221 5.15119 5.74915 5.04701 5.83846 4.91334C5.92778 4.77968 5.97545 4.62253 5.97545 4.46177C5.97509 4.36931 5.95859 4.27761 5.92668 4.19083L6.6853 3.58393C6.73957 3.53937 6.77442 3.47549 6.7825 3.40574C6.79059 3.33599 6.77129 3.26583 6.72865 3.21004ZM3.26607 3.64896H1.64045C1.56859 3.64896 1.49968 3.6775 1.44887 3.72831C1.39806 3.77912 1.36951 3.84804 1.36951 3.91989C1.36951 3.99175 1.39806 4.06067 1.44887 4.11148C1.49968 4.16229 1.56859 4.19083 1.64045 4.19083H3.26607C3.33793 4.19083 3.40684 4.16229 3.45765 4.11148C3.50847 4.06067 3.53701 3.99175 3.53701 3.91989C3.53701 3.84804 3.50847 3.77912 3.45765 3.72831C3.40684 3.6775 3.33793 3.64896 3.26607 3.64896ZM3.26607 4.73271H1.09857C1.02672 4.73271 0.957803 4.76125 0.906992 4.81206C0.856182 4.86287 0.827637 4.93179 0.827637 5.00364C0.827637 5.0755 0.856182 5.14441 0.906992 5.19523C0.957803 5.24604 1.02672 5.27458 1.09857 5.27458H3.26607C3.33793 5.27458 3.40684 5.24604 3.45765 5.19523C3.50847 5.14441 3.53701 5.0755 3.53701 5.00364C3.53701 4.93179 3.50847 4.86287 3.45765 4.81206C3.40684 4.76125 3.33793 4.73271 3.26607 4.73271ZM3.26607 5.81646H1.64045C1.56859 5.81646 1.49968 5.845 1.44887 5.89581C1.39806 5.94662 1.36951 6.01554 1.36951 6.08739C1.36951 6.15925 1.39806 6.22816 1.44887 6.27898C1.49968 6.32979 1.56859 6.35833 1.64045 6.35833H3.26607C3.33793 6.35833 3.40684 6.32979 3.45765 6.27898C3.50847 6.22816 3.53701 6.15925 3.53701 6.08739C3.53701 6.01554 3.50847 5.94662 3.45765 5.89581C3.40684 5.845 3.33793 5.81646 3.26607 5.81646Z" fill="black"/>
</svg>
