<svg width="24" height="20" viewBox="0 0 24 20" fill="none" xmlns="http://www.w3.org/2000/svg">
<path d="M23.8399 2.89237C22.9601 3.27608 22.0297 3.53109 21.0772 3.64955C22.0809 3.05408 22.8314 2.11116 23.1865 0.999415C22.2466 1.55683 21.2183 1.94936 20.1461 2.16004C19.4886 1.45808 18.6353 0.970062 17.6969 0.759389C16.7585 0.548717 15.7784 0.625127 14.884 0.978693C13.9896 1.33226 13.2223 1.94664 12.6816 2.74201C12.1409 3.53738 11.8519 4.47697 11.8521 5.43872C11.8521 5.81877 11.8843 6.18421 11.9632 6.5321C10.0558 6.43858 8.18954 5.94353 6.48653 5.0793C4.78352 4.21508 3.28209 3.00115 2.0804 1.51687C1.46475 2.57204 1.27441 3.82219 1.54816 5.01277C1.82191 6.20335 2.53915 7.24483 3.55384 7.92514C2.79484 7.90479 2.05186 7.70225 1.38754 7.3346V7.38722C1.38881 8.49439 1.77149 9.56731 2.47115 10.4254C3.17082 11.2835 4.14475 11.8743 5.22899 12.0984C4.81881 12.2065 4.39607 12.2596 3.9719 12.2563C3.66725 12.2617 3.36292 12.2342 3.06416 12.1744C3.37396 13.126 3.97115 13.9582 4.77351 14.5564C5.57586 15.1546 6.54392 15.4893 7.54439 15.5145C5.84722 16.8418 3.75406 17.5618 1.59949 17.5595C1.20628 17.5595 0.829155 17.5419 0.452026 17.4937C2.64446 18.9065 5.19928 19.6539 7.8075 19.6454C16.6306 19.6454 21.4543 12.3367 21.4543 6.00149C21.4543 5.78954 21.447 5.58489 21.4368 5.38171C22.3825 4.70491 23.1968 3.86133 23.8399 2.89237Z" fill="white"/>
</svg>
