<svg width="26" height="9" viewBox="0 0 26 9" fill="none" xmlns="http://www.w3.org/2000/svg">
<path d="M11.2307 8.50666H9.17176L10.4585 0.598522H12.5177L11.2307 8.50666ZM7.43968 0.598522L5.47682 6.0378L5.24455 4.86651L5.24476 4.86694L4.55198 1.31056C4.55198 1.31056 4.46821 0.598522 3.57531 0.598522H0.330313L0.292236 0.732425C0.292236 0.732425 1.28456 0.938886 2.4459 1.63633L4.23467 8.50687H6.37988L9.65554 0.598522H7.43968ZM23.634 8.50666H25.5245L23.8762 0.59831H22.2211C21.4568 0.59831 21.2707 1.18765 21.2707 1.18765L18.2 8.50666H20.3463L20.7755 7.33199H23.3928L23.634 8.50666ZM21.3684 5.70928L22.4502 2.74986L23.0588 5.70928H21.3684ZM18.361 2.50025L18.6548 0.802021C18.6548 0.802021 17.7481 0.457214 16.803 0.457214C15.7813 0.457214 13.3549 0.903771 13.3549 3.07521C13.3549 5.11824 16.2026 5.14363 16.2026 6.21676C16.2026 7.28989 13.6483 7.0976 12.8053 6.42089L12.4992 8.19654C12.4992 8.19654 13.4186 8.6431 14.8232 8.6431C16.2282 8.6431 18.3479 7.91562 18.3479 5.93563C18.3479 3.87948 15.4745 3.68803 15.4745 2.79408C15.4747 1.8999 17.4799 2.01477 18.361 2.50025Z" fill="#2566AF"/>
<path d="M5.24476 4.86671L4.55198 1.31033C4.55198 1.31033 4.46821 0.598297 3.57531 0.598297H0.330313L0.292236 0.732201C0.292236 0.732201 1.85191 1.05543 3.3479 2.26649C4.77832 3.42402 5.24476 4.86671 5.24476 4.86671Z" fill="#E6A540"/>
</svg>
