<svg width="124" height="22" viewBox="0 0 124 22" fill="none" xmlns="http://www.w3.org/2000/svg">
<path d="M0.710147 13.1341V12.1681L5.62415 5.36412H7.15015V12.0281H8.55015V13.1341H7.15015V15.3881H5.89015V13.1341H0.710147ZM5.94615 6.69412L2.18015 12.0281H5.94615V6.69412ZM9.79483 7.81412C9.86017 6.95546 10.1915 6.28346 10.7888 5.79812C11.3862 5.31279 12.1608 5.07012 13.1128 5.07012C13.7475 5.07012 14.2935 5.18679 14.7508 5.42012C15.2175 5.64412 15.5675 5.95212 15.8008 6.34412C16.0435 6.73612 16.1648 7.17946 16.1648 7.67412C16.1648 8.25279 15.9968 8.75212 15.6608 9.17212C15.3342 9.59212 14.9048 9.86279 14.3728 9.98412V10.0541C14.9795 10.2035 15.4602 10.4975 15.8148 10.9361C16.1695 11.3748 16.3468 11.9488 16.3468 12.6581C16.3468 13.1901 16.2255 13.6708 15.9828 14.1001C15.7402 14.5201 15.3762 14.8515 14.8908 15.0941C14.4055 15.3368 13.8222 15.4581 13.1408 15.4581C12.1515 15.4581 11.3395 15.2015 10.7048 14.6881C10.0702 14.1655 9.7155 13.4281 9.64083 12.4761H10.8728C10.9382 13.0361 11.1668 13.4935 11.5588 13.8481C11.9508 14.2028 12.4735 14.3801 13.1268 14.3801C13.7802 14.3801 14.2748 14.2121 14.6108 13.8761C14.9562 13.5308 15.1288 13.0875 15.1288 12.5461C15.1288 11.8461 14.8955 11.3421 14.4288 11.0341C13.9622 10.7261 13.2575 10.5721 12.3148 10.5721H11.9928V9.50812H12.3288C13.1875 9.49879 13.8362 9.35879 14.2748 9.08812C14.7135 8.80812 14.9328 8.37879 14.9328 7.80012C14.9328 7.30546 14.7695 6.90879 14.4428 6.61012C14.1255 6.31146 13.6682 6.16212 13.0708 6.16212C12.4922 6.16212 12.0255 6.31146 11.6708 6.61012C11.3162 6.90879 11.1062 7.31012 11.0408 7.81412H9.79483ZM17.913 14.3661C19.0983 13.4141 20.027 12.6348 20.699 12.0281C21.371 11.4121 21.9356 10.7728 22.393 10.1101C22.8596 9.43812 23.093 8.78012 23.093 8.13612C23.093 7.52946 22.9436 7.05346 22.645 6.70812C22.3556 6.35346 21.8843 6.17612 21.231 6.17612C20.5963 6.17612 20.1016 6.37679 19.747 6.77812C19.4016 7.17012 19.215 7.69746 19.187 8.36012H17.955C17.9923 7.31479 18.3096 6.50746 18.907 5.93812C19.5043 5.36879 20.2743 5.08412 21.217 5.08412C22.1783 5.08412 22.939 5.35012 23.499 5.88212C24.0683 6.41412 24.353 7.14679 24.353 8.08012C24.353 8.85479 24.1196 9.61079 23.653 10.3481C23.1956 11.0761 22.673 11.7201 22.085 12.2801C21.497 12.8308 20.7456 13.4748 19.831 14.2121H24.647V15.2761H17.913V14.3661ZM25.7837 6.42812V5.26612H28.4157V15.3881H27.1277V6.42812H25.7837Z" fill="black"/>
<circle cx="45.7616" cy="10.8881" r="2.33799" fill="black"/>
<circle cx="56.5279" cy="10.8881" r="2.33799" fill="black"/>
<circle cx="67.294" cy="10.8881" r="2.33799" fill="black"/>
<circle cx="78.0604" cy="10.8881" r="2.33799" fill="black"/>
<circle cx="88.8265" cy="10.8881" r="2.33799" fill="black"/>
<circle cx="99.5929" cy="10.8881" r="2.33799" fill="black"/>
<circle cx="110.359" cy="10.8881" r="2.33799" fill="black"/>
<circle cx="121.125" cy="10.8881" r="2.33799" fill="black"/>
</svg>
